<?xml version="1.0" encoding="UTF-8"?>
<svg id="Capa_2" data-name="Capa 2" xmlns="http://www.w3.org/2000/svg" viewBox="0 0 323.22 31.37">
  <defs>
    <style>
      .cls-1 {
        fill: #51aebe;
      }

      .cls-2 {
        fill: #ee8e35;
      }

      .cls-3 {
        fill: #f7d549;
      }

      .cls-4 {
        fill: #2a64ab;
      }

      .cls-5 {
        fill: #f3bd42;
      }
    </style>
  </defs>
  <g id="Capa_1-2" data-name="Capa 1">
    <g>
      <path class="cls-4" d="m193.81,29.42c0-11.18,4.13-21.39,10.94-29.21h-15.51s-28.7,21.14-28.7,21.14v10.01h33.32c-.03-.64-.04-1.29-.04-1.94Z"/>
      <path class="cls-1" d="m108.79,31.37h15.11c7.94-8.98,19.63-14.66,32.66-14.66,1.34,0,2.66.06,3.97.18V.22h-9.15s-42.59,31.15-42.59,31.15Z"/>
      <polygon class="cls-2" points="80.83 0 80.83 13.59 99.22 .22 80.83 0"/>
      <polygon class="cls-1" points="160.53 .22 160.53 21.36 189.24 .22 160.53 .22"/>
      <polygon class="cls-4" points="80.83 31.37 108.79 31.37 151.38 .22 99.22 .22 80.83 13.59 80.83 31.37"/>
      <path class="cls-2" d="m242.35,24.33c1.31.2,2.66.31,4.03.31,13.9,0,25.28-10.77,26.26-24.42h17.64c-.53,12.41-6.21,23.49-14.96,31.15h-32.97s0-7.04,0-7.04Z"/>
      <path class="cls-2" d="m193.85,31.37h17.85c-.05-.64-.08-1.29-.08-1.94,0-14.72,11.93-26.65,26.65-26.65,1.39,0,2.75.11,4.08.31V.22h-37.61c-6.81,7.81-10.94,18.03-10.94,29.21,0,.65.02,1.3.04,1.94Z"/>
      <path class="cls-2" d="m123.9,31.37h36.63v-14.68c-1.31-.12-2.63-.18-3.97-.18-13.03,0-24.72,5.76-32.66,14.87Z"/>
      <path class="cls-2" d="m190.13,31.37h-36.63v-14.68c1.31-.12,2.63-.18,3.97-.18,13.03,0,24.72,5.76,32.66,14.87Z"/>
      <path class="cls-5" d="m272.65.22c-.99,13.65-12.36,24.42-26.26,24.42-1.37,0-2.72-.11-4.03-.31V.22s30.29,0,30.29,0Z"/>
      <path class="cls-3" d="m211.63,29.42c0,.65.03,1.3.08,1.94h30.65V3.08c-1.33-.2-2.69-.31-4.08-.31-14.72,0-26.65,11.93-26.65,26.65Z"/>
      <path class="cls-4" d="m323.22,7.18c-3.9-4.27-9.52-6.95-15.76-6.95-11.78,0-21.33,9.55-21.33,21.33,0,3.54.86,6.88,2.39,9.82h-13.2c8.75-7.66,14.43-18.74,14.96-31.15h32.93s0,6.96,0,6.96Z"/>
      <path class="cls-5" d="m307.47.22c6.24,0,11.86,2.68,15.76,6.95v24.19s-14.75,0-14.75,0c4.98-.51,8.86-4.71,8.86-9.82,0-5.45-4.42-9.87-9.87-9.87-5.45,0-9.87,4.42-9.87,9.87,0,5.11,3.88,9.31,8.86,9.82h-17.93c-1.53-2.94-2.39-6.28-2.39-9.82,0-11.78,9.55-21.33,21.33-21.33Z"/>
      <path class="cls-3" d="m297.6,21.55c0-5.45,4.42-9.87,9.87-9.87,5.45,0,9.87,4.42,9.87,9.87,0,5.11-3.88,9.31-8.86,9.82h-2.02c-4.98-.51-8.86-4.71-8.86-9.82Z"/>
      <g>
        <polygon class="cls-5" points="0 0 0 6.15 8.33 0 0 0"/>
        <path class="cls-3" d="m61.15,0h-.58c.03.12.06.25.08.37L61.15,0Z"/>
        <path class="cls-3" d="m26.73,15.01c-3.41,4.87-9.06,8.05-15.45,8.05-4.23,0-8.14-1.39-11.28-3.75v12.06h18.61s14.46-10.66,14.46-10.66c-2.52-1.4-4.69-3.35-6.33-5.7Z"/>
        <path class="cls-1" d="m42.19,23.06c-3.3,0-6.4-.85-9.1-2.34l-14.44,10.65h52.9s9.28-6.84,9.28-6.84V0h-19.64s-.53.39-.53.39c.25,1.23.39,2.51.39,3.81,0,10.41-8.44,18.85-18.85,18.85Z"/>
        <path class="cls-2" d="m26.73,15.01c-2.14-3.06-3.4-6.78-3.4-10.8,0-1.45.16-2.85.47-4.21h-5.39c.73,1.23,1.15,2.67,1.15,4.21,0,4.57-3.71,8.28-8.28,8.28-4.57,0-8.28-3.71-8.28-8.28,0-.09,0-.19,0-.28L0,6.15v13.17c3.15,2.35,7.05,3.75,11.28,3.75,6.39,0,12.04-3.18,15.45-8.05Z"/>
        <path class="cls-3" d="m3.01,3.93c0,.09,0,.18,0,.28,0,4.57,3.71,8.28,8.28,8.28,4.57,0,8.28-3.71,8.28-8.28,0-1.54-.42-2.97-1.15-4.21h-10.08S3.01,3.93,3.01,3.93Z"/>
        <path class="cls-5" d="m48.89,9.07L60.66.4s0-.02,0-.02l-11.72,8.64s-.03.04-.04.06Z"/>
        <path class="cls-5" d="m44.78,12.07l-11.71,8.64s.01,0,.02.01l11.76-8.67s-.05.02-.07.02Z"/>
        <path class="cls-5" d="m50.47,4.21c0,1.79-.57,3.45-1.54,4.81L60.65.37c-.03-.12-.05-.25-.08-.37h-11.25c.73,1.23,1.15,2.67,1.15,4.21Z"/>
        <path class="cls-5" d="m42.19,12.49c-4.57,0-8.28-3.71-8.28-8.28,0-1.54.42-2.97,1.15-4.21h-5.39c.31,1.35.47,2.76.47,4.21,0,4.02-1.26,7.74-3.4,10.8,1.65,2.35,3.81,4.31,6.33,5.7l11.71-8.64c-.82.27-1.69.42-2.59.42Z"/>
        <path class="cls-3" d="m44.85,12.05l-11.76,8.67c2.7,1.49,5.8,2.34,9.1,2.34,10.41,0,18.85-8.44,18.85-18.85,0-1.31-.13-2.58-.39-3.81l-11.77,8.67c-1,1.37-2.4,2.42-4.04,2.98Z"/>
        <path class="cls-5" d="m23.34,4.21c0,4.02,1.26,7.74,3.4,10.8,2.14-3.06,3.4-6.78,3.4-10.8,0-1.45-.16-2.85-.47-4.21h-5.86c-.31,1.35-.47,2.76-.47,4.21Z"/>
        <path class="cls-3" d="m44.85,12.05l4.04-2.98s.03-.04.04-.06l-4.15,3.06s.05-.02.07-.02Z"/>
        <path class="cls-3" d="m42.19,12.49c.91,0,1.78-.15,2.59-.42l4.15-3.06c.97-1.36,1.54-3.01,1.54-4.81,0-1.54-.42-2.97-1.15-4.21h-14.27c-.73,1.23-1.15,2.67-1.15,4.21,0,4.57,3.71,8.28,8.28,8.28Z"/>
        <path class="cls-3" d="m48.89,9.07l-4.04,2.98c1.64-.56,3.04-1.61,4.04-2.98Z"/>
        <polygon class="cls-4" points="95.4 31.37 95.4 3.07 55.72 31.37 95.4 31.37"/>
      </g>
    </g>
  </g>
</svg>