<?xml version="1.0" encoding="UTF-8"?>
<svg id="Capa_2" data-name="Capa 2" xmlns="http://www.w3.org/2000/svg" viewBox="0 0 292.69 64.06">
  <defs>
    <style>
      .cls-1 {
        fill: #fff;
      }
    </style>
  </defs>
  <g id="Capa_1-2" data-name="Capa 1">
    <g>
      <g>
        <g>
          <path class="cls-1" d="m120.73,37.26l2.85-3.42-2.45-3.72,1.95-4.01-3.27-3.03.93-4.35-3.9-2.16-.14-4.45-4.3-1.16-1.2-4.29-4.45-.1-2.19-3.88-4.35.97-3.05-3.24-3.99,1.98-3.74-2.42-3.4,2.88-4.21-1.45-2.61,3.61-4.43-.4-1.67,4.12-4.4.67-.64,4.41-4.11,1.71.44,4.43-3.58,2.64,1.49,4.2-2.85,3.42,2.45,3.72-1.95,4,3.27,3.02-.93,4.35,3.89,2.16.14,4.45,4.3,1.16,1.2,4.29,4.45.1,2.19,3.88,4.35-.97,3.05,3.24,3.99-1.98,3.74,2.41,3.4-2.88,4.21,1.45,2.61-3.61,4.43.4,1.67-4.13,4.4-.67.63-4.41,4.11-1.71-.44-4.43,3.58-2.64-1.49-4.2Zm-29.2,23.72c-15.98,0-28.94-12.96-28.94-28.94S75.55,3.09,91.53,3.09s28.94,12.96,28.94,28.94-12.96,28.94-28.94,28.94Z"/>
          <path class="cls-1" d="m89.92,59.09c-.26-.01-.47-.25-.45-.51h0c.01-.27.25-.47.51-.45h0c.27.01.47.25.45.51h0c-.01.26-.23.45-.48.45h-.03Zm2.89-.46c-.02-.26.18-.49.45-.51h0c.27-.01.5.18.52.45h0c.01.27-.19.49-.45.51h-.03c-.26,0-.47-.2-.48-.45Zm-6.27.05h0c-.26-.05-.43-.3-.39-.56h0c.05-.27.3-.43.56-.39h0c.26.05.44.3.39.56h0c-.05.24-.25.4-.48.4h0s-.06,0-.09-.01Zm9.59-.41c-.05-.26.12-.52.38-.56h0c.26-.05.52.12.56.38h0c.05.26-.12.51-.38.56h0s-.06,0-.09,0h0c-.23,0-.43-.16-.47-.39Zm-12.89-.42c-.26-.08-.39-.36-.31-.61h0c.08-.26.35-.39.61-.31h0c.26.08.39.35.31.61h0c-.07.2-.26.33-.46.33h0s-.1,0-.14-.02Zm16.14-.36c-.08-.26.06-.53.31-.61h0c.26-.08.53.05.61.31h0c.09.25-.05.52-.3.61h0c-.05.01-.1.02-.15.02h0c-.2,0-.39-.13-.46-.33Zm-19.31-.89c-.24-.11-.35-.4-.23-.64h0c.11-.24.4-.34.64-.23h0c.24.11.34.4.23.64h0c-.08.17-.26.28-.44.28h0c-.07,0-.13-.01-.2-.05Zm22.43-.3c-.11-.24-.01-.52.23-.64h0c.24-.12.53,0,.64.23h0c.12.24.01.52-.23.64h0c-.07.03-.14.04-.21.04h0c-.18,0-.35-.1-.44-.27Zm-25.42-1.33c-.23-.14-.29-.44-.15-.66h0c.14-.22.44-.29.66-.15h0c.22.14.29.44.15.66h0c-.09.15-.25.23-.41.23h0c-.09,0-.18-.02-.26-.08Zm28.37-.23c-.14-.23-.08-.52.15-.66h0c.23-.15.52-.08.67.14h0c.14.23.08.53-.15.67h0c-.08.05-.17.08-.26.08h0c-.16,0-.31-.08-.4-.22Zm-31.13-1.76c-.21-.17-.24-.48-.07-.68h0c.17-.21.47-.24.68-.07h0c.21.17.24.47.07.68h0c-.1.12-.24.17-.38.17h0c-.11,0-.21-.03-.3-.11Zm33.86-.16c-.17-.21-.14-.51.06-.68h0c.2-.17.51-.14.68.06h0c.17.21.15.51-.06.68h0c-.09.08-.2.12-.31.12h0c-.13,0-.27-.06-.37-.17Zm-36.35-2.16h0c-.18-.19-.18-.5.02-.68h0c.19-.18.5-.17.68.02h0c.18.19.17.5-.02.68h0c-.09.09-.21.13-.33.13h0c-.12,0-.26-.05-.35-.15Zm38.82-.1c-.19-.18-.2-.49-.02-.68h0c.18-.19.49-.21.68-.02h0c.19.18.2.49.02.68h0c-.1.1-.23.15-.35.15h0c-.12,0-.24-.04-.33-.13Zm-41-2.52h0c-.15-.21-.11-.52.11-.67h0c.21-.16.52-.11.67.1h0c.15.22.11.52-.11.67h0c-.09.06-.18.09-.28.09h0c-.15,0-.29-.07-.39-.2Zm43.17-.02c-.21-.16-.26-.46-.11-.67h0c.15-.21.46-.27.67-.11h0c.21.15.26.46.11.67h0c-.1.14-.24.2-.39.2h0c-.1,0-.2-.03-.28-.09Zm-45.01-2.84c-.13-.23-.04-.52.19-.66h0c.23-.13.53-.05.66.19h0c.13.23.04.52-.19.65h0c-.07.04-.15.06-.23.06h0c-.17,0-.34-.09-.42-.25Zm46.85.05c-.23-.12-.32-.42-.19-.65h0c.13-.23.42-.32.66-.19h0c.23.13.32.42.19.65h0c-.09.16-.26.25-.42.25h0c-.08,0-.16-.02-.23-.06Zm-48.31-3.12c-.1-.25.02-.53.26-.63h0c.25-.1.53.02.63.27h0c.1.25-.02.53-.27.63h0c-.06.02-.12.03-.18.03h0c-.19,0-.38-.12-.45-.3Zm49.78.12c-.25-.1-.37-.38-.27-.63h0c.1-.25.38-.37.62-.27h0c.25.1.37.38.28.62h0c-.08.19-.26.31-.45.31h0c-.06,0-.12,0-.17-.03Zm-50.85-3.35c-.07-.26.09-.52.35-.59h0c.26-.07.52.09.59.35h0c.06.26-.09.52-.35.59h0s-.08.01-.12.01h0c-.22,0-.41-.14-.47-.36Zm51.93.19c-.26-.07-.41-.33-.35-.59h0c.06-.26.33-.41.58-.35h0c.26.07.41.33.35.58h0c-.06.22-.26.37-.47.37h0s-.08,0-.12-.01Zm-52.58-3.53c-.03-.26.15-.51.41-.54h0c.26-.03.51.15.54.41h0c.03.27-.15.51-.41.54h0s-.04,0-.06,0h0c-.24,0-.45-.18-.48-.42Zm53.25.25c-.27-.03-.45-.27-.42-.53h0c.03-.26.28-.45.54-.42h0c.26.03.45.27.42.53h0c-.03.25-.24.42-.48.42h0s-.04,0-.06,0Zm-53.48-3.65s0-.03,0-.05h0s0-.04,0-.06h0c0-.26.22-.48.48-.48h0c.26,0,.48.22.48.48h0s0,.04,0,.06h0s0,.03,0,.05h0c0,.27-.21.49-.48.49h0c-.26,0-.48-.22-.48-.48Zm53.26-.16c0-.27.21-.48.48-.48h0c.26,0,.48.21.48.48h0c0,.27-.22.48-.48.49h0c-.27,0-.48-.22-.48-.48Zm-52.29.16h0s0,0,0,0Zm-.34-2.96c-.26-.03-.45-.27-.41-.54h0c.03-.27.27-.45.53-.42h0c.26.03.45.27.42.54h0c-.03.24-.24.42-.48.42h-.06Zm52.42-.47c-.03-.26.15-.51.42-.54h0c.26-.03.51.15.54.41h0c.03.27-.15.51-.42.54h0s-.04,0-.06,0h0c-.24,0-.44-.18-.48-.42Zm-51.85-2.82c-.26-.07-.41-.33-.35-.59h0c.07-.25.33-.41.59-.35h0c.26.07.41.33.35.59h0c-.06.22-.25.36-.47.36h0s-.08,0-.12-.01Zm51.24-.4c-.07-.26.09-.52.35-.59h0c.25-.07.52.09.59.35h0c.07.26-.09.52-.35.59h0s-.08.01-.12.01h0c-.22,0-.41-.14-.47-.36Zm-50.26-2.8c-.25-.1-.37-.38-.27-.62h0c.1-.25.38-.37.63-.28h0c.25.1.37.38.27.63h0c-.07.19-.26.3-.45.3h0c-.06,0-.12,0-.17-.03Zm49.24-.32c-.1-.25.02-.52.27-.63h0c.25-.1.53.02.63.27h0c.1.25-.02.53-.27.63h0c-.06.02-.12.03-.18.03h0c-.19,0-.37-.12-.45-.3Zm-47.87-2.73c-.24-.13-.32-.42-.19-.66h0c.13-.23.42-.32.65-.19h0c.24.13.32.42.19.65h0c-.09.16-.26.25-.42.25h0c-.08,0-.16-.02-.23-.06Zm46.47-.23h0c-.13-.23-.04-.52.19-.65h0c.24-.13.53-.04.66.19h0c.13.23.04.53-.19.65h0c-.07.04-.15.06-.23.06h0c-.17,0-.34-.09-.42-.25Zm-44.73-2.62c-.22-.16-.26-.46-.11-.67h0c.15-.22.46-.26.67-.11h0c.22.15.26.46.11.67h0c-.09.13-.24.2-.39.2h0c-.1,0-.2-.03-.28-.09Zm42.96-.14h0c-.16-.22-.11-.52.11-.67h0c.21-.15.52-.11.67.11h0c.16.22.11.52-.11.67h0c-.08.06-.18.09-.28.09h0c-.15,0-.3-.07-.39-.2Zm-40.88-2.47c-.19-.18-.2-.49-.02-.68h0c.18-.2.49-.21.68-.02h0c.2.18.21.49.02.68h0c-.1.1-.23.15-.35.15h0c-.12,0-.24-.04-.33-.13Zm38.79-.05c-.18-.19-.17-.5.02-.68h0c.19-.18.5-.17.68.02h0c.18.19.17.5-.02.68h0c-.09.09-.21.13-.33.13h0c-.13,0-.26-.05-.35-.15Zm-36.39-2.28c-.17-.21-.14-.51.07-.68h0c.2-.17.51-.14.67.06h0c.17.21.14.51-.06.68h0c-.09.07-.2.11-.31.11h0c-.13,0-.28-.06-.37-.17Zm33.99.03c-.2-.17-.23-.47-.06-.68h0c.17-.21.47-.23.68-.06h0c.2.17.23.47.06.67h0c-.1.12-.23.18-.37.18h0c-.11,0-.22-.04-.31-.11Zm-31.33-2.05c-.14-.22-.08-.52.14-.66h0c.23-.15.53-.08.66.15h0c.14.22.08.52-.14.67h0c-.08.05-.17.07-.26.07h0c-.16,0-.31-.08-.4-.22Zm28.67.12c-.23-.14-.29-.44-.15-.66h0c.14-.23.44-.29.66-.15h0c.22.14.29.44.15.67h0c-.09.14-.25.22-.41.22h0c-.09,0-.18-.02-.25-.07Zm-25.78-1.79c-.12-.24,0-.53.23-.64h0c.24-.11.52,0,.64.23h0c.11.24,0,.52-.23.64h0c-.07.03-.13.05-.2.05h0c-.18,0-.36-.11-.44-.28Zm22.9.21h0c-.24-.12-.34-.4-.23-.64h0c.12-.24.4-.35.64-.23h0c.24.11.35.4.23.64h0c-.08.17-.26.27-.43.27h0c-.07,0-.14-.01-.21-.04Zm-19.81-1.5c-.08-.26.06-.53.31-.61h0c.26-.09.52.05.61.3h0c.08.26-.05.53-.31.61h0s-.1.02-.15.02h0c-.2,0-.39-.13-.46-.33Zm16.76.29c-.25-.08-.39-.35-.31-.61h0c.08-.25.35-.39.61-.31h0c.25.08.39.35.31.61h0c-.06.2-.26.33-.46.33h0s-.1,0-.15-.02Zm-13.54-1.18c-.05-.26.12-.52.39-.56h0c.26-.05.51.12.56.38h0c.05.26-.12.52-.38.56h0s-.06.01-.09.01h0c-.23,0-.43-.16-.47-.39Zm10.36.37h0c-.26-.05-.43-.3-.38-.56h0c.05-.26.3-.43.56-.38h0c.26.05.43.3.39.56h0c-.04.23-.25.4-.47.4h0s-.06,0-.09,0Zm-7.05-.85c-.02-.26.18-.49.45-.51h0c.26-.01.5.19.51.45h0c.02.26-.18.49-.45.51h-.03c-.26,0-.47-.2-.48-.45Zm3.79.45c-.26-.01-.47-.25-.45-.51h0c.01-.26.24-.47.51-.45h0c.27.01.47.24.45.51h0c-.01.26-.23.45-.48.45h0s-.02,0-.03,0Z"/>
          <path class="cls-1" d="m91.53,7.02c-13.82,0-25.02,11.2-25.02,25.02s11.2,25.02,25.02,25.02,25.02-11.2,25.02-25.02-11.2-25.02-25.02-25.02Zm0,49.43c-13.48,0-24.41-10.93-24.41-24.41s10.93-24.41,24.41-24.41,24.41,10.93,24.41,24.41-10.93,24.41-24.41,24.41Z"/>
          <g>
            <path class="cls-1" d="m71.35,29.69l-.09,1.06.47.24-.06.72-2.41-1.31.06-.7,2.59-.9-.06.74-.5.16Zm-.54.16l-.83.26.77.39.05-.64Z"/>
            <path class="cls-1" d="m70.7,28.57c-.75-.16-1.15-.85-.98-1.63.1-.45.34-.78.69-.95l.3.53c-.22.11-.36.28-.41.52-.09.4.13.74.55.84.42.09.76-.13.85-.53.05-.23,0-.45-.16-.64l.5-.35c.25.3.33.7.23,1.16-.17.78-.82,1.23-1.57,1.07Z"/>
            <path class="cls-1" d="m72.27,24.95l-.13.36.63.22-.24.67-2.36-.85.39-1.08c.23-.64.71-.93,1.25-.74.35.12.54.39.58.73l.93-.24-.26.72-.78.2Zm-1.21-.44l-.13.37.69.25.13-.37c.1-.28.02-.46-.2-.54-.22-.08-.4.01-.5.29Z"/>
            <path class="cls-1" d="m73.85,21.74l.49.25-.91,1.8-2.24-1.13.89-1.76.49.25-.57,1.13.38.19.5-1,.47.24-.5,1,.41.21.59-1.17Z"/>
            <path class="cls-1" d="m72.41,20.3l.67-.98c.47-.69,1.19-.89,1.83-.45.64.43.72,1.18.25,1.87l-.67.98-2.07-1.41Zm2.26.14c.24-.35.19-.73-.17-.98-.36-.24-.73-.15-.97.2l-.25.37,1.14.78.25-.37Z"/>
            <path class="cls-1" d="m74.26,17.74l.46-.54,1.92,1.62-.46.54-1.92-1.62Z"/>
            <path class="cls-1" d="m75.92,16.71l-.55.55-.4-.4,1.59-1.59.4.4-.54.54,1.38,1.38-.5.5-1.38-1.38Z"/>
            <path class="cls-1" d="m79.42,15.56l-.83.66.15.51-.57.45-.68-2.66.55-.43,2.43,1.29-.58.46-.46-.26Zm-.49-.28l-.75-.43.24.83.51-.4Z"/>
            <path class="cls-1" d="m79.79,14.33c-.39-.66-.16-1.42.52-1.83.4-.24.8-.28,1.17-.14l-.18.58c-.23-.08-.45-.07-.66.05-.35.21-.46.6-.24.97.22.37.61.47.97.26.21-.12.32-.31.36-.55l.6.12c-.05.39-.29.72-.69.96-.69.41-1.46.24-1.85-.42Z"/>
            <path class="cls-1" d="m81.73,11.8l.64-.3,1.07,2.27-.64.3-1.07-2.27Z"/>
            <path class="cls-1" d="m83.3,12.42c-.25-.71.13-1.43.89-1.69.76-.26,1.5.06,1.75.78.25.71-.13,1.43-.89,1.69s-1.5-.06-1.75-.78Zm.78-2.39l.64-.22-.46.74-.46.16.28-.67Zm1.18,1.71c-.14-.41-.52-.58-.88-.46-.36.12-.55.49-.4.9.14.41.52.58.88.46s.55-.49.4-.9Z"/>
            <path class="cls-1" d="m88.5,9.71l.48,2.46-.57.11-1.34-1.1.25,1.31-.68.13-.48-2.46.57-.11,1.34,1.1-.25-1.31.68-.13Z"/>
            <path class="cls-1" d="m91.47,9.52h.71s-.03,2.52-.03,2.52h-.71s.03-2.52.03-2.52Z"/>
            <path class="cls-1" d="m95.25,9.8l-.28,2.49-.58-.07-.95-1.45-.15,1.33-.69-.08.28-2.49.58.07.95,1.45.15-1.33.69.08Z"/>
            <path class="cls-1" d="m96.37,10.63l-.75-.18.13-.55,2.18.53-.13.55-.75-.18-.46,1.89-.69-.17.46-1.89Z"/>
            <path class="cls-1" d="m99.61,13.12l-.19.51-1.89-.7.87-2.35,1.85.68-.19.51-1.19-.44-.15.4,1.05.39-.18.5-1.05-.39-.16.43,1.23.46Z"/>
            <path class="cls-1" d="m101,13.68l-.34-.18-.31.59-.63-.33,1.16-2.23,1.02.53c.61.32.83.83.56,1.34-.17.33-.45.49-.8.48l.12.95-.67-.35-.1-.8Zm.6-1.14l-.35-.18-.34.65.35.18c.26.14.45.08.56-.12.11-.21.04-.4-.22-.53Z"/>
            <path class="cls-1" d="m105.39,14.29l-1.45,2.05-.48-.34-.14-1.73-.77,1.09-.57-.4,1.45-2.05.48.34.14,1.73.77-1.09.57.4Z"/>
            <path class="cls-1" d="m105.83,17.41l-.77-.73-.48.22-.53-.5,2.52-1.07.51.48-.9,2.59-.54-.51.19-.49Zm.21-.52l.31-.81-.78.37.47.44Z"/>
            <path class="cls-1" d="m107.11,17.59c.59-.48,1.38-.37,1.88.24.29.36.4.75.32,1.14l-.6-.09c.05-.24,0-.46-.15-.64-.26-.32-.66-.36-1-.09-.33.27-.37.68-.11,1,.15.19.36.27.6.27l-.03.61c-.39,0-.76-.18-1.05-.54-.5-.62-.46-1.41.14-1.9Z"/>
            <path class="cls-1" d="m109.9,19.12l.4.59-2.08,1.4-.4-.59,2.08-1.4Z"/>
            <path class="cls-1" d="m109.53,20.77c.67-.35,1.43-.09,1.81.62.38.71.16,1.49-.5,1.84-.67.35-1.43.09-1.81-.62s-.16-1.49.5-1.84Zm.97,1.83c.38-.2.49-.6.32-.93-.18-.34-.57-.47-.95-.26-.38.2-.49.6-.32.93.18.34.57.47.95.26Z"/>
            <path class="cls-1" d="m112.99,25.5l-2.37.84-.2-.55.89-1.49-1.26.45-.23-.66,2.37-.84.2.55-.89,1.49,1.26-.45.23.66Z"/>
            <path class="cls-1" d="m111.55,28.3l-.21-1.04-.52-.1-.15-.71,2.68.58.14.68-2.24,1.59-.15-.72.44-.29Zm.47-.31l.72-.48-.85-.15.13.63Z"/>
            <path class="cls-1" d="m113.75,29.25l.06.71-1.94.16.1,1.19-.56.05-.15-1.9,2.5-.2Z"/>
          </g>
          <g>
            <path class="cls-1" d="m84.71,52.71l.43-1.69.86.22-.42,1.66c-.13.52.03.79.39.88.36.09.63-.06.76-.59l.42-1.66.85.21-.43,1.69c-.23.91-.89,1.28-1.79,1.06-.9-.23-1.3-.87-1.07-1.78Z"/>
            <path class="cls-1" d="m91.37,52.06l-.26,3.13-.73-.06-1.24-1.78-.14,1.67-.87-.07.26-3.13.73.06,1.24,1.78.14-1.67.87.07Z"/>
            <path class="cls-1" d="m94.11,54.39l-1.32.11-.19.63-.9.08,1.12-3.25.87-.07,1.65,3.01-.92.08-.3-.59Zm-.31-.63l-.49-.97-.32,1.04.8-.07Z"/>
            <path class="cls-1" d="m98.01,51.01l.77,3.04-.86.22-.3-1.19-1.17.3.3,1.19-.86.22-.77-3.04.86-.22.29,1.14,1.17-.3-.29-1.14.86-.22Z"/>
          </g>
          <g>
            <polygon class="cls-1" points="91.24 35.09 92.48 34.74 91.75 30.81 91.29 30.89 91.35 34.34 90 34.66 91.24 35.09"/>
            <polygon class="cls-1" points="91.25 36.68 90.53 36.14 88.39 37.14 94.16 37.17 92.03 36.14 91.25 36.68"/>
            <polygon class="cls-1" points="91.19 38.45 93.39 37.48 89.1 37.48 91.19 38.45"/>
            <path class="cls-1" d="m94.68,28.73c-1.01.28-1.7.98-1.97,1.85.09.05.18.09.28.14.37.3.84.51,1.36.62-.19-.19-.3-.45-.3-.73,0-.34.16-.64.41-.83-.3.05-.59.14-.85.26.36-.47.88-.83,1.52-1.01.82-.23,1.73-.12,2.55.24,0-.02.02-.05.03-.07-.91-.55-2.01-.76-3.02-.48Z"/>
            <path class="cls-1" d="m96.13,30.62c0,.28-.12.54-.3.73.59-.13,1.11-.4,1.49-.77-.4-.39-.96-.68-1.6-.79.25.19.41.49.41.83Z"/>
            <path class="cls-1" d="m95.08,29.88c-.4,0-.73.33-.73.73s.33.73.73.73.73-.33.73-.73-.33-.73-.73-.73Z"/>
            <path class="cls-1" d="m88.37,28.73c1.01.28,1.7.98,1.97,1.85-.09.05-.18.09-.28.14-.37.3-.84.51-1.36.62.19-.19.3-.45.3-.73,0-.34-.16-.64-.41-.83.3.05.59.14.85.26-.36-.47-.88-.83-1.52-1.01-.82-.23-1.73-.12-2.55.24,0-.02-.02-.05-.03-.07.91-.55,2.01-.76,3.02-.48Z"/>
            <path class="cls-1" d="m86.91,30.62c0,.28.12.54.3.73-.59-.13-1.11-.4-1.49-.77.4-.39.96-.68,1.6-.79-.25.19-.41.49-.41.83Z"/>
            <path class="cls-1" d="m87.96,29.88c.4,0,.73.33.73.73s-.33.73-.73.73-.73-.33-.73-.73.33-.73.73-.73Z"/>
            <polygon class="cls-1" points="91.51 41.24 91.33 41.24 91.33 48.18 91.84 48.18 91.84 41.22 91.57 41.24 91.51 41.24"/>
            <path class="cls-1" d="m107.58,32.01c0-.08,0-.16,0-.24h-7.66s0-.05,0-.08c-.04-.37-.1-.74-.18-1.1l3.69-1.05-.14-.5-3.69,1.05s-.01-.05-.02-.07c-.02-.07-.04-.13-.06-.2l-.14-.4-.11-.27c-.03-.06-.06-.11-.08-.17l6.89-3.83c-.07-.16-.15-.31-.23-.47l-6.89,3.83s-.02-.04-.03-.06c-.18-.33-.38-.65-.61-.96l3.05-2.77-.35-.38-3.02,2.74s-.02-.03-.03-.04c-.08-.1-.17-.21-.26-.31,0,0,0,0-.01-.01l-.25-.27c-.15-.15-.31-.3-.47-.43l4.43-6.75c-.14-.11-.28-.22-.43-.32l-4.41,6.75s-.02-.02-.03-.02c-.43-.32-.88-.61-1.36-.85l-.38-.18-.19-.08s-.03-.01-.05-.02l1.03-4.11h-.53l-.99,3.93s-.01,0-.02,0c-.55-.18-1.12-.31-1.7-.38l-.28-.03h-.21v-8.1h-.52v8.06h-.17s-.46.02-.46.02h-.06s-.22.02-.22.02c-.43.05-.85.12-1.27.23h0s0,0-.01,0l-1.13-3.91-.48.14,1.11,3.91c-.16.05-.32.11-.48.17-.01,0-.25.1-.25.1l-.39.18c-.18.09-.36.19-.53.29,0,0-.02.01-.03.02l-3.99-6.9c-.17.1-.33.21-.49.32l4.05,6.86c-.39.26-.75.54-1.1.86-.01.01-.02.02-.04.03l-3.17-3.07-.36.37,3.16,3.06-.06.06c-.36.39-.67.81-.95,1.25-.01.02-.02.04-.03.06l-6.88-3.52c-.08.15-.16.31-.23.46l6.85,3.51c-.11.2-.21.4-.31.62l-.16.4-.14.38s0,0,0,.01c0,.02-.01.04-.02.07l-4.16-1.04-.13.5,4.15,1.04c-.11.42-.19.84-.23,1.26,0,.03,0,.05,0,.08h-7.46c0,.08,0,.16,0,.24,0,.09,0,.19,0,.28h7.43c0,.1-.01.2-.01.3v.44c.03.3.06.6.11.89,0,.03,0,.05.01.08l-3.89,1.11.14.5,3.85-1.1c.02.09.04.17.06.26.08.3.17.6.28.9l-6.48,3.16c.07.16.15.31.23.47l6.46-3.15.04.1.07.15c.19.4.42.77.67,1.14t0,0s.02.03.03.05l-3.04,1.82.27.45,3.1-1.85c.21.26.42.51.66.75l.27.25c.21.19.43.37.66.54.01.01.03.02.04.03l-3.95,5.77c.14.1.29.2.43.29l3.95-5.76c.42.27.86.51,1.33.7l.4.16c.12.05.25.07.37.11h0s.02,0,.03,0l-.91,3.63.5.13.9-3.61c.32.08.64.14.97.18l.31.03.69.04h.3s.06,0,.06,0l.28-.02h0l.49-.04s.31-.04.31-.04c.45-.07.9-.19,1.33-.33l1.01,3.53.5-.14-1.01-3.56h.02s0,0,0,0l.26-.11c.55-.24,1.07-.54,1.56-.89l3.55,6.13.43-.26-3.57-6.19s.02-.02.03-.02c0,0,0,0,0,0,.15-.13.31-.25.46-.39l.26-.25c.1-.1.19-.21.28-.31l2.72,2.64.36-.38-2.75-2.66s.02-.03.03-.04c.32-.41.61-.85.85-1.31l6.6,3.22c.08-.15.16-.3.24-.46l-6.61-3.23.09-.21s.02-.06.02-.06c.16-.4.29-.81.39-1.22l3.68.92.13-.5-3.71-.93s0-.05.01-.07c.06-.35.11-.71.12-1.07v-.4c.01-.1,0-.2,0-.3h7.62c0-.09,0-.19,0-.28Zm-8.16.96c-.04.93-.24,1.83-.59,2.69l-.02.06-.16.36c-.39.82-.91,1.56-1.55,2.21l-.25.24c-.69.64-1.46,1.15-2.32,1.52l-.38.15c-.52.19-1.06.33-1.6.42l-.27.03s-.74.05-.74.05h-.07s-.17,0-.17,0h-.1s-.65-.04-.65-.04l-.29-.03c-.6-.08-1.19-.22-1.75-.42l-.38-.15c-.85-.36-1.62-.86-2.3-1.48l-.25-.24c-.65-.64-1.18-1.39-1.58-2.2l-.07-.14s-.16-.38-.16-.38c-.34-.84-.54-1.73-.59-2.64v-.41c-.01-.87.13-1.74.41-2.57l.13-.35.16-.38c.36-.82.85-1.56,1.46-2.21l.23-.25c.64-.63,1.37-1.15,2.17-1.54l.36-.16.23-.09c.7-.28,1.41-.45,2.13-.52l.21-.02h.05s.43-.03.43-.03h.14s.13,0,.13,0h.08s.49.03.49.03l.26.03c.73.08,1.44.27,2.12.54l.18.08.36.17c.79.4,1.51.91,2.13,1.54l.24.25c.62.68,1.12,1.44,1.48,2.28l.11.25.13.37c.28.83.42,1.71.42,2.59,0,0,0,.38,0,.38Z"/>
          </g>
          <path class="cls-1" d="m83.34,51.81c-3.8-1.52-7.08-4.09-9.5-7.41-2.46-3.39-3.88-7.4-4.1-11.59l.57-.03c.21,4.08,1.59,7.98,3.99,11.28,2.35,3.24,5.55,5.74,9.25,7.22l-.21.53Z"/>
          <path class="cls-1" d="m99.27,51.89l-.21-.53c7.74-3.01,13.01-10.3,13.44-18.58l.57.03c-.44,8.51-5.86,16-13.81,19.09Z"/>
        </g>
        <g>
          <g>
            <path class="cls-1" d="m142.68,34.94v3.06c0,1.2-.56,1.75-1.54,1.75s-1.53-.54-1.53-1.75v-3.06h-.78v3.09c0,1.58.87,2.41,2.3,2.41s2.3-.83,2.3-2.41v-3.09h-.75Z"/>
            <path class="cls-1" d="m152.03,34.94v4.05l-3.26-4.05h-.64v5.44h.78v-4.05l3.26,4.05h.64v-5.44h-.78Z"/>
            <path class="cls-1" d="m159.95,34.94h-.77l-2.46,5.44h.8l.6-1.36h2.89l.6,1.36h.82l-2.47-5.44Zm-1.56,3.46l1.17-2.66,1.17,2.66h-2.35Z"/>
            <path class="cls-1" d="m170.23,34.94v2.34h-3.12v-2.34h-.78v5.44h.78v-2.42h3.12v2.42h.78v-5.44h-.78Z"/>
          </g>
          <g>
            <path class="cls-1" d="m143.3,46.24c.71-.34,1.12-.96,1.12-1.8,0-1.31-.98-2.11-2.54-2.11h-2.61v5.71h1.62v-1.52h.88l1.04,1.52h1.73l-1.23-1.8Zm-1.52-.97h-.9v-1.67h.9c.67,0,1,.31,1,.84s-.33.83-1,.83Z"/>
            <path class="cls-1" d="m149.28,42.32h-1.59l-2.52,5.71h1.65l.45-1.11h2.42l.45,1.11h1.68l-2.53-5.71Zm-1.54,3.41l.73-1.83.73,1.83h-1.47Z"/>
            <path class="cls-1" d="m156.66,42.32v3.04l-2.52-3.04h-1.33v5.71h1.58v-3.04l2.52,3.04h1.33v-5.71h-1.58Z"/>
            <path class="cls-1" d="m163.19,44.85l2.33-2.53h-1.78l-2.21,2.37v-2.37h-1.6v5.71h1.6v-1.43l.6-.64,1.63,2.07h1.88l-2.46-3.18Z"/>
            <path class="cls-1" d="m166.62,42.32v5.71h1.62v-5.71h-1.62Z"/>
            <path class="cls-1" d="m173.78,42.32v3.04l-2.52-3.04h-1.33v5.71h1.58v-3.04l2.52,3.04h1.33v-5.71h-1.58Z"/>
            <path class="cls-1" d="m180.88,46.62c-.29.13-.57.19-.87.19-.96,0-1.62-.67-1.62-1.63s.65-1.63,1.63-1.63c.55,0,1,.2,1.39.64l1.03-.93c-.56-.68-1.43-1.04-2.5-1.04-1.85,0-3.18,1.23-3.18,2.97s1.33,2.97,3.15,2.97c.83,0,1.74-.25,2.4-.73v-2.37h-1.43v1.57Z"/>
            <path class="cls-1" d="m145.45,50.2h-1.33l-1.96,3.3-2.01-3.3h-1.33v5.71h1.49v-2.95l1.46,2.38h.72l1.47-2.46.02,3.03h1.49l-.02-5.71Z"/>
            <path class="cls-1" d="m150.88,50.2v3.12c0,.98-.41,1.37-1.08,1.37s-1.09-.39-1.09-1.37v-3.12h-1.62v3.17c0,1.71,1,2.66,2.68,2.66s2.68-.95,2.68-2.66v-3.17h-1.59Z"/>
            <path class="cls-1" d="m157.97,50.2v3.04l-2.52-3.04h-1.33v5.71h1.58v-3.04l2.52,3.04h1.33v-5.71h-1.58Z"/>
            <path class="cls-1" d="m163.94,50.2h-2.7v5.71h2.7c1.89,0,3.19-1.1,3.19-2.86s-1.3-2.86-3.19-2.86Zm-.06,4.42h-1.02v-3.13h1.02c.97,0,1.62.58,1.62,1.57s-.65,1.57-1.62,1.57Z"/>
            <path class="cls-1" d="m168.53,50.2v5.71h1.62v-5.71h-1.62Z"/>
            <path class="cls-1" d="m175.27,50.2h-1.59l-2.52,5.71h1.65l.45-1.11h2.42l.45,1.11h1.68l-2.53-5.71Zm-1.54,3.41l.73-1.83.73,1.83h-1.47Z"/>
            <path class="cls-1" d="m180.42,54.63v-4.43h-1.62v5.71h4.34v-1.28h-2.73Z"/>
          </g>
          <g>
            <path class="cls-1" d="m140.15,62.6l1.75-1.68c.78-.74.94-1.24.94-1.8,0-.98-.77-1.59-1.96-1.59-.89,0-1.65.32-2.09.86l.55.48c.35-.42.85-.62,1.46-.62.8,0,1.22.36,1.22.95,0,.36-.11.72-.72,1.31l-2.33,2.24v.55h4.11v-.71h-2.93Z"/>
            <path class="cls-1" d="m149.32,57.53c-1.34,0-2.33,1.06-2.33,2.92s1,2.92,2.33,2.92,2.33-1.06,2.33-2.92-1-2.92-2.33-2.92Zm0,5.12c-.9,0-1.52-.73-1.52-2.19s.62-2.2,1.52-2.2,1.51.73,1.51,2.2-.62,2.19-1.51,2.19Z"/>
            <path class="cls-1" d="m156.75,62.6l1.75-1.68c.78-.74.94-1.24.94-1.8,0-.98-.77-1.59-1.96-1.59-.89,0-1.65.32-2.09.86l.56.48c.35-.42.85-.62,1.46-.62.8,0,1.22.36,1.22.95,0,.36-.11.72-.72,1.31l-2.33,2.24v.55h4.11v-.71h-2.93Z"/>
            <path class="cls-1" d="m167.64,61.57c0,.97-.71,1.75-2.17,1.75-.82,0-1.62-.26-2.11-.7l.38-.65c.39.36,1.02.61,1.73.61.86,0,1.35-.39,1.35-1.02s-.43-1-1.42-1h-.46v-.57l1.44-1.77h-2.76v-.71h3.78v.56l-1.5,1.85c1.15.11,1.73.75,1.73,1.64Z"/>
          </g>
          <path class="cls-1" d="m140.16,2.7v26.88h16.08V2.7h-16.08Zm3.52,4.46c.05.02.11.04.16.07.53.36,1.06.73,1.57,1.08-.3.71-.66,1.37-.86,2.07-.13.45-.14,1-.01,1.45.08.3.46.61.77.72.44.16.78-.17.94-.59.2-.54.36-1.1.53-1.65.15-.47.27-.95.45-1.41.59-1.49,1.57-2.19,2.96-2.14,1.53.05,2.62.86,3.06,2.39.67,2.34.02,4.39-1.44,6.23-.72-.34-1.39-.66-1.95-.93.45-.89.98-1.77,1.34-2.71.19-.49.13-1.1.07-1.65-.05-.46-.31-.85-.86-.9-.52-.05-.81.24-.96.68-.21.61-.4,1.22-.6,1.83-.12.37-.21.74-.35,1.11-.59,1.59-1.47,2.22-3.03,2.18-1.42-.04-2.49-.88-2.97-2.34-.57-1.74-.05-4.15,1.19-5.5Zm11.58,6.2c-.7,1.48-1.42,2.94-2.08,4.43-.12.27-.14.67-.03.95,1.21,3.02-.36,6.45-3.44,7.49-3.11,1.04-6.43-.76-7.27-3.96-.82-3.12,1.22-6.37,4.41-6.95,1.51-.28,2.94,0,4.25.92-.49.58-.94,1.12-1.38,1.66-1.87-.87-3.78-.46-4.81,1.4-.78,1.41-.37,3.26.89,4.25,1.33,1.04,3.19.96,4.44-.19.99-.91,1.72-2.76.23-4.8,1.6-1.96,3.17-3.9,4.75-5.83.07.04.14.07.21.11-.05.18-.08.36-.16.53Z"/>
          <path class="cls-1" d="m138.05.69v30.9h46.31V.69h-46.31Zm45.04,29.63h-43.77V1.96h43.77v28.35Z"/>
          <g>
            <path class="cls-1" d="m163.22,4.82l.55.26c.7.35,1.35.76,1.97,1.23.02.01.03.02.05.04l2.41-3.64h-4.84l-.49,1.97s.04.02.07.02l.28.12Z"/>
            <path class="cls-1" d="m170.65,15.02s0,.07.01.11h11.43V4.1l-12.5,7.01c.04.08.08.16.12.24l.16.4.21.57c.03.09.05.19.08.28.01.03.02.07.03.1l5.35-1.53.21.72-5.35,1.53c.13.53.21,1.06.26,1.6Z"/>
            <path class="cls-1" d="m159.66,3.86c.84.1,1.67.28,2.47.54,0,0,.02,0,.03.01l.43-1.71h-3.63v1.1h.3s.4.06.4.06Z"/>
            <path class="cls-1" d="m169.35,12.56l-.2-.54-.15-.37c-.52-1.22-1.24-2.33-2.14-3.3l-.35-.36c-.9-.9-1.94-1.65-3.09-2.22l-.52-.24-.26-.11c-.98-.4-2.02-.67-3.07-.79l-.38-.04-.72-.04h-.11s-.18,0-.18,0h-.21s-.63.03-.63.03h-.08s-.26.03-.26.03v14.55l1.23-.29-.08-5,.66-.11,1.06,5.7-1.8.51-1.08-.38v1.91l.04-.02,1.05.78,1.13-.78,3.08,1.49-5.3-.03v.49h4.18l-3.18,1.41-1-.46v3.67h.09s.94.06.94.06h.15s.25,0,.25,0h.1s1.05-.08,1.07-.08l.4-.05c.79-.13,1.57-.33,2.32-.61l.55-.22c1.24-.53,2.37-1.28,3.36-2.2l.36-.35c.92-.94,1.67-2.02,2.24-3.2l.24-.53.03-.08c.51-1.25.79-2.56.86-3.9,0,0,.01-.53.01-.55,0-1.28-.21-2.54-.61-3.75Zm-5.69,1.96c-.59,0-1.06-.47-1.06-1.06s.48-1.06,1.06-1.06,1.06.48,1.06,1.06-.47,1.06-1.06,1.06Zm1.09,0c.27-.27.43-.65.43-1.06,0-.49-.24-.92-.6-1.2.93.17,1.74.58,2.32,1.15-.55.53-1.3.92-2.16,1.11Zm2.66-3c-1.19-.52-2.5-.68-3.69-.35-.93.25-1.67.78-2.2,1.46.38-.17.79-.3,1.23-.38-.36.27-.6.71-.6,1.2,0,.41.17.79.44,1.06-.76-.16-1.44-.46-1.97-.9-.13-.07-.27-.13-.4-.2.39-1.26,1.4-2.28,2.86-2.69,1.46-.4,3.06-.1,4.38.7-.01.03-.03.07-.04.1Z"/>
            <path class="cls-1" d="m182.1,15.88h-11.38c0,.14.02.28.02.43l-.02.58c-.02.52-.09,1.04-.18,1.55,0,.03-.01.07-.02.1l5.37,1.35-.18.73-5.34-1.34c-.15.6-.33,1.19-.57,1.77,0,0-.03.09-.03.09l-.13.3,12.46,6.05v-11.61Z"/>
            <path class="cls-1" d="m169.3,22.12c-.35.67-.77,1.31-1.23,1.91-.02.02-.03.04-.05.06l3.99,3.86-.52.54-3.95-3.83c-.13.16-.27.31-.41.45l-.38.37c-.22.2-.44.39-.66.57,0,0,0,0,0,0-.01.01-.03.02-.05.03l1.98,3.49h14.08v-1.25l-12.79-6.21Z"/>
            <path class="cls-1" d="m165.43,26.54c-.7.5-1.46.94-2.26,1.28l-.38.16h0s-.02.01-.02.01l.45,1.59h3.93l-1.72-3.04Z"/>
            <path class="cls-1" d="m158.21,28.86h.26s.09,0,.09,0l.4-.03v.76h3.47l-.38-1.35c-.63.21-1.27.38-1.93.48,0,0-.42.05-.45.05l-.72.06-.4.03h-.09s-.26,0-.26,0h-.17l-1-.05h-.02s0,.78,0,.78h1.2v-.72Z"/>
            <path class="cls-1" d="m166.38,6.82c.23.2.46.41.68.63l.37.39s0,.02.02.02c.13.14.26.29.38.44.02.02.03.04.05.06l4.38-3.97.5.56-4.42,4.01c.33.45.62.91.88,1.39.01.03.03.06.04.08l12.84-7.19v-.54h-12.99l-2.72,4.11Z"/>
            <polygon class="cls-1" points="157.22 3.81 157.3 3.8 157.97 3.77 158.19 3.77 158.2 3.77 158.21 3.77 158.21 2.7 157.01 2.7 157.01 3.82 157.22 3.81"/>
          </g>
        </g>
        <g>
          <path class="cls-1" d="m198.51,10.97v42.13h94.18V10.97h-94.18Zm92.94,40.88h-91.69V12.21h91.69v39.64Z"/>
          <path class="cls-1" d="m201.39,13.85v20.38h33.24V13.85h-33.24Zm5.41.75h22.43v1.43h-22.43v-1.43Zm19.83,2.14v10.59h-1.43v-10.59h1.43Zm-5.31,0v10.59h-1.43v-10.59h1.43Zm-5.31,0v10.59h-1.43v-10.59h1.43Zm-5.31,0v10.59h-1.43v-10.59h1.43Zm-3.91,11.17h22.43v1.43h-22.43v-1.43Zm-2.65,2.25h27.73v1.43h-27.73v-1.43Zm29.87,3.34h-32v-1.23h32v1.23Z"/>
          <path class="cls-1" d="m268.3,34.8l-.76,1.9h1.53l-.76-1.9Zm0,0l-.76,1.9h1.53l-.76-1.9Zm0,0l-.76,1.9h1.53l-.76-1.9Zm15.07-.37c-.9,0-1.6.67-1.6,1.7s.7,1.7,1.6,1.7,1.6-.67,1.6-1.7-.7-1.7-1.6-1.7Zm0,0c-.9,0-1.6.67-1.6,1.7s.7,1.7,1.6,1.7,1.6-.67,1.6-1.7-.7-1.7-1.6-1.7Zm-15.07.37l-.76,1.9h1.53l-.76-1.9Zm0,0l-.76,1.9h1.53l-.76-1.9Zm9.28-8.37l-.76,1.9h1.53l-.76-1.9Zm5.79,8c-.9,0-1.6.67-1.6,1.7s.7,1.7,1.6,1.7,1.6-.67,1.6-1.7-.7-1.7-1.6-1.7Zm-15.07.37l-.76,1.9h1.53l-.76-1.9Zm9.28-8.37l-.76,1.9h1.53l-.76-1.9Zm5.79,8c-.9,0-1.6.67-1.6,1.7s.7,1.7,1.6,1.7,1.6-.67,1.6-1.7-.7-1.7-1.6-1.7Zm-17.35-8.3h-1.06v3.26h1.06c1.01,0,1.69-.6,1.69-1.63s-.68-1.63-1.69-1.63Zm2.28,8.68l-.76,1.9h1.53l-.76-1.9Zm9.28-8.37l-.76,1.9h1.53l-.76-1.9Zm5.79,8c-.9,0-1.6.67-1.6,1.7s.7,1.7,1.6,1.7,1.6-.67,1.6-1.7-.7-1.7-1.6-1.7Zm-17.35-8.3h-1.06v3.26h1.06c1.01,0,1.69-.6,1.69-1.63s-.68-1.63-1.69-1.63Zm2.28,8.68l-.76,1.9h1.53l-.76-1.9Zm9.28-8.37l-.76,1.9h1.53l-.76-1.9Zm5.79,8c-.9,0-1.6.67-1.6,1.7s.7,1.7,1.6,1.7,1.6-.67,1.6-1.7-.7-1.7-1.6-1.7Zm-17.35-8.3h-1.06v3.26h1.06c1.01,0,1.69-.6,1.69-1.63s-.68-1.63-1.69-1.63Zm2.28,8.68l-.76,1.9h1.53l-.76-1.9Zm9.28-8.37l-.76,1.9h1.53l-.76-1.9Zm5.79,8c-.9,0-1.6.67-1.6,1.7s.7,1.7,1.6,1.7,1.6-.67,1.6-1.7-.7-1.7-1.6-1.7Zm-17.35-8.3h-1.06v3.26h1.06c1.01,0,1.69-.6,1.69-1.63s-.68-1.63-1.69-1.63Zm2.28,8.68l-.76,1.9h1.53l-.76-1.9Zm9.28-8.37l-.76,1.9h1.53l-.76-1.9Zm5.79,8c-.9,0-1.6.67-1.6,1.7s.7,1.7,1.6,1.7,1.6-.67,1.6-1.7-.7-1.7-1.6-1.7Zm-40.68-17.28h-1.44v2.67h1.44c1.08,0,1.65-.49,1.65-1.34s-.57-1.33-1.65-1.33Zm23.33,8.97h-1.06v3.26h1.06c1.01,0,1.69-.6,1.69-1.63s-.68-1.63-1.69-1.63Zm2.28,8.68l-.76,1.9h1.53l-.76-1.9Zm9.28-8.37l-.76,1.9h1.53l-.76-1.9Zm5.79,8c-.9,0-1.6.67-1.6,1.7s.7,1.7,1.6,1.7,1.6-.67,1.6-1.7-.7-1.7-1.6-1.7Zm-40.68-17.28h-1.44v2.67h1.44c1.08,0,1.65-.49,1.65-1.34s-.57-1.33-1.65-1.33Zm23.33,8.97h-1.06v3.26h1.06c1.01,0,1.69-.6,1.69-1.63s-.68-1.63-1.69-1.63Zm2.28,8.68l-.76,1.9h1.53l-.76-1.9Zm9.28-8.37l-.76,1.9h1.53l-.76-1.9Zm5.79,8c-.9,0-1.6.67-1.6,1.7s.7,1.7,1.6,1.7,1.6-.67,1.6-1.7-.7-1.7-1.6-1.7Zm-40.68-17.28h-1.44v2.67h1.44c1.08,0,1.65-.49,1.65-1.34s-.57-1.33-1.65-1.33Zm6.93.13l-1.28,2.91h2.56l-1.28-2.91Zm16.41,8.85h-1.06v3.26h1.06c1.01,0,1.69-.6,1.69-1.63s-.68-1.63-1.69-1.63Zm2.28,8.68l-.76,1.9h1.53l-.76-1.9Zm9.28-8.37l-.76,1.9h1.53l-.76-1.9Zm5.79,8c-.9,0-1.6.67-1.6,1.7s.7,1.7,1.6,1.7,1.6-.67,1.6-1.7-.7-1.7-1.6-1.7Zm-40.68-17.28h-1.44v2.67h1.44c1.08,0,1.65-.49,1.65-1.34s-.57-1.33-1.65-1.33Zm6.93.13l-1.28,2.91h2.56l-1.28-2.91Zm16.41,8.85h-1.06v3.26h1.06c1.01,0,1.69-.6,1.69-1.63s-.68-1.63-1.69-1.63Zm2.28,8.68l-.76,1.9h1.53l-.76-1.9Zm9.28-8.37l-.76,1.9h1.53l-.76-1.9Zm5.79,8c-.9,0-1.6.67-1.6,1.7s.7,1.7,1.6,1.7,1.6-.67,1.6-1.7-.7-1.7-1.6-1.7Zm-40.68-17.28h-1.44v2.67h1.44c1.08,0,1.65-.49,1.65-1.34s-.57-1.33-1.65-1.33Zm6.93.13l-1.28,2.91h2.56l-1.28-2.91Zm16.41,8.85h-1.06v3.26h1.06c1.01,0,1.69-.6,1.69-1.63s-.68-1.63-1.69-1.63Zm2.28,8.68l-.76,1.9h1.53l-.76-1.9Zm9.28-8.37l-.76,1.9h1.53l-.76-1.9Zm5.79,8c-.9,0-1.6.67-1.6,1.7s.7,1.7,1.6,1.7,1.6-.67,1.6-1.7-.7-1.7-1.6-1.7Zm-40.68-17.28h-1.44v2.67h1.44c1.08,0,1.65-.49,1.65-1.34s-.57-1.33-1.65-1.33Zm6.93.13l-1.28,2.91h2.56l-1.28-2.91Zm16.41,8.85h-1.06v3.26h1.06c1.01,0,1.69-.6,1.69-1.63s-.68-1.63-1.69-1.63Zm2.28,8.68l-.76,1.9h1.53l-.76-1.9Zm9.28-8.37l-.76,1.9h1.53l-.76-1.9Zm5.79,8c-.9,0-1.6.67-1.6,1.7s.7,1.7,1.6,1.7,1.6-.67,1.6-1.7-.7-1.7-1.6-1.7Zm-40.68-17.28h-1.44v2.67h1.44c1.08,0,1.65-.49,1.65-1.34s-.57-1.33-1.65-1.33Zm6.93.13l-1.28,2.91h2.56l-1.28-2.91Zm16.41,8.85h-1.06v3.26h1.06c1.01,0,1.69-.6,1.69-1.63s-.68-1.63-1.69-1.63Zm2.28,8.68l-.76,1.9h1.53l-.76-1.9Zm9.28-8.37l-.76,1.9h1.53l-.76-1.9Zm5.79,8c-.9,0-1.6.67-1.6,1.7s.7,1.7,1.6,1.7,1.6-.67,1.6-1.7-.7-1.7-1.6-1.7Zm-40.68-17.28h-1.44v2.67h1.44c1.08,0,1.65-.49,1.65-1.34s-.57-1.33-1.65-1.33Zm6.93.13l-1.28,2.91h2.56l-1.28-2.91Zm16.41,8.85h-1.06v3.26h1.06c1.01,0,1.69-.6,1.69-1.63s-.68-1.63-1.69-1.63Zm2.28,8.68l-.76,1.9h1.53l-.76-1.9Zm9.28-8.37l-.76,1.9h1.53l-.76-1.9Zm5.79,8c-.9,0-1.6.67-1.6,1.7s.7,1.7,1.6,1.7,1.6-.67,1.6-1.7-.7-1.7-1.6-1.7Zm-40.68-17.28h-1.44v2.67h1.44c1.08,0,1.65-.49,1.65-1.34s-.57-1.33-1.65-1.33Zm6.93.13l-1.28,2.91h2.56l-1.28-2.91Zm16.41,8.85h-1.06v3.26h1.06c1.01,0,1.69-.6,1.69-1.63s-.68-1.63-1.69-1.63Zm2.28,8.68l-.76,1.9h1.53l-.76-1.9Zm9.28-8.37l-.76,1.9h1.53l-.76-1.9Zm5.79,8c-.9,0-1.6.67-1.6,1.7s.7,1.7,1.6,1.7,1.6-.67,1.6-1.7-.7-1.7-1.6-1.7Zm-15.07.37l-.76,1.9h1.53l-.76-1.9Zm-25.61-17.65h-1.44v2.67h1.44c1.08,0,1.65-.49,1.65-1.34s-.57-1.33-1.65-1.33Zm6.93.13l-1.28,2.91h2.56l-1.28-2.91Zm16.41,8.85h-1.06v3.26h1.06c1.01,0,1.69-.6,1.69-1.63s-.68-1.63-1.69-1.63Zm17.35,8.3c-.9,0-1.6.67-1.6,1.7s.7,1.7,1.6,1.7,1.6-.67,1.6-1.7-.7-1.7-1.6-1.7Zm-5.79-8l-.76,1.9h1.53l-.76-1.9Zm-34.89-9.28h-1.44v2.67h1.44c1.08,0,1.65-.49,1.65-1.34s-.57-1.33-1.65-1.33Zm6.93.13l-1.28,2.91h2.56l-1.28-2.91Zm16.41,8.85h-1.06v3.26h1.06c1.01,0,1.69-.6,1.69-1.63s-.68-1.63-1.69-1.63Zm2.28,8.68l-.76,1.9h1.53l-.76-1.9Zm9.28-8.37l-.76,1.9h1.53l-.76-1.9Zm5.79,8c-.9,0-1.6.67-1.6,1.7s.7,1.7,1.6,1.7,1.6-.67,1.6-1.7-.7-1.7-1.6-1.7Zm-15.07.37l-.76,1.9h1.53l-.76-1.9Zm-25.61-17.65h-1.44v2.67h1.44c1.08,0,1.65-.49,1.65-1.34s-.57-1.33-1.65-1.33Zm6.93.13l-1.28,2.91h2.56l-1.28-2.91Zm16.41,8.85h-1.06v3.26h1.06c1.01,0,1.69-.6,1.69-1.63s-.68-1.63-1.69-1.63Zm17.35,8.3c-.9,0-1.6.67-1.6,1.7s.7,1.7,1.6,1.7,1.6-.67,1.6-1.7-.7-1.7-1.6-1.7Zm-5.79-8l-.76,1.9h1.53l-.76-1.9Zm-34.89-9.28h-1.44v2.67h1.44c1.08,0,1.65-.49,1.65-1.34s-.57-1.33-1.65-1.33Zm6.93.13l-1.28,2.91h2.56l-1.28-2.91Zm16.41,8.85h-1.06v3.26h1.06c1.01,0,1.69-.6,1.69-1.63s-.68-1.63-1.69-1.63Zm2.28,8.68l-.76,1.9h1.53l-.76-1.9Zm9.28-8.37l-.76,1.9h1.53l-.76-1.9Zm5.79,8c-.9,0-1.6.67-1.6,1.7s.7,1.7,1.6,1.7,1.6-.67,1.6-1.7-.7-1.7-1.6-1.7Zm-15.07.37l-.76,1.9h1.53l-.76-1.9Zm-25.61-17.65h-1.44v2.67h1.44c1.08,0,1.65-.49,1.65-1.34s-.57-1.33-1.65-1.33Zm6.93.13l-1.28,2.91h2.56l-1.28-2.91Zm16.41,8.85h-1.06v3.26h1.06c1.01,0,1.69-.6,1.69-1.63s-.68-1.63-1.69-1.63Zm17.35,8.3c-.9,0-1.6.67-1.6,1.7s.7,1.7,1.6,1.7,1.6-.67,1.6-1.7-.7-1.7-1.6-1.7Zm-5.79-8l-.76,1.9h1.53l-.76-1.9Zm-34.89-9.28h-1.44v2.67h1.44c1.08,0,1.65-.49,1.65-1.34s-.57-1.33-1.65-1.33Zm6.93.13l-1.28,2.91h2.56l-1.28-2.91Zm16.41,8.85h-1.06v3.26h1.06c1.01,0,1.69-.6,1.69-1.63s-.68-1.63-1.69-1.63Zm2.28,8.68l-.76,1.9h1.53l-.76-1.9Zm9.28-8.37l-.76,1.9h1.53l-.76-1.9Zm5.79,8c-.9,0-1.6.67-1.6,1.7s.7,1.7,1.6,1.7,1.6-.67,1.6-1.7-.7-1.7-1.6-1.7Zm-15.07.37l-.76,1.9h1.53l-.76-1.9Zm-25.61-17.65h-1.44v2.67h1.44c1.08,0,1.65-.49,1.65-1.34s-.57-1.33-1.65-1.33Zm6.93.13l-1.28,2.91h2.56l-1.28-2.91Zm16.41,8.85h-1.06v3.26h1.06c1.01,0,1.69-.6,1.69-1.63s-.68-1.63-1.69-1.63Zm17.35,8.3c-.9,0-1.6.67-1.6,1.7s.7,1.7,1.6,1.7,1.6-.67,1.6-1.7-.7-1.7-1.6-1.7Zm-5.79-8l-.76,1.9h1.53l-.76-1.9Zm5.79,8c-.9,0-1.6.67-1.6,1.7s.7,1.7,1.6,1.7,1.6-.67,1.6-1.7-.7-1.7-1.6-1.7Zm-6.56-6.1h1.53l-.76-1.9-.76,1.9Zm-9.28,8.37h1.53l-.76-1.9-.76,1.9Zm-1.51-10.58h-1.06v3.26h1.06c1.01,0,1.69-.6,1.69-1.63s-.68-1.63-1.69-1.63Zm-17.69-5.94h2.56l-1.28-2.91-1.28,2.91Zm-5.64-3.03h-1.44v2.67h1.44c1.08,0,1.65-.49,1.65-1.34s-.57-1.33-1.65-1.33Zm34.89,9.28l-.76,1.9h1.53l-.76-1.9Zm5.79,8c-.9,0-1.6.67-1.6,1.7s.7,1.7,1.6,1.7,1.6-.67,1.6-1.7-.7-1.7-1.6-1.7Zm-17.35-8.3h-1.06v3.26h1.06c1.01,0,1.69-.6,1.69-1.63s-.68-1.63-1.69-1.63Zm-16.41-8.85l-1.28,2.91h2.56l-1.28-2.91Zm-6.93-.13h-1.44v2.67h1.44c1.08,0,1.65-.49,1.65-1.34s-.57-1.33-1.65-1.33Zm25.61,17.65l-.76,1.9h1.53l-.76-1.9Zm15.07-.37c-.9,0-1.6.67-1.6,1.7s.7,1.7,1.6,1.7,1.6-.67,1.6-1.7-.7-1.7-1.6-1.7Zm-5.79-8l-.76,1.9h1.53l-.76-1.9Zm-9.28,8.37l-.76,1.9h1.53l-.76-1.9Zm-2.28-8.68h-1.06v3.26h1.06c1.01,0,1.69-.6,1.69-1.63s-.68-1.63-1.69-1.63Zm-16.41-8.85l-1.28,2.91h2.56l-1.28-2.91Zm-6.93-.13h-1.44v2.67h1.44c1.08,0,1.65-.49,1.65-1.34s-.57-1.33-1.65-1.33Zm34.89,9.28l-.76,1.9h1.53l-.76-1.9Zm5.79,8c-.9,0-1.6.67-1.6,1.7s.7,1.7,1.6,1.7,1.6-.67,1.6-1.7-.7-1.7-1.6-1.7Zm-17.35-8.3h-1.06v3.26h1.06c1.01,0,1.69-.6,1.69-1.63s-.68-1.63-1.69-1.63Zm-16.41-8.85l-1.28,2.91h2.56l-1.28-2.91Zm-6.93-.13h-1.44v2.67h1.44c1.08,0,1.65-.49,1.65-1.34s-.57-1.33-1.65-1.33Zm25.61,17.65l-.76,1.9h1.53l-.76-1.9Zm15.07-.37c-.9,0-1.6.67-1.6,1.7s.7,1.7,1.6,1.7,1.6-.67,1.6-1.7-.7-1.7-1.6-1.7Zm-5.79-8l-.76,1.9h1.53l-.76-1.9Zm-9.28,8.37l-.76,1.9h1.53l-.76-1.9Zm-2.28-8.68h-1.06v3.26h1.06c1.01,0,1.69-.6,1.69-1.63s-.68-1.63-1.69-1.63Zm-16.41-8.85l-1.28,2.91h2.56l-1.28-2.91Zm-6.93-.13h-1.44v2.67h1.44c1.08,0,1.65-.49,1.65-1.34s-.57-1.33-1.65-1.33Zm34.89,9.28l-.76,1.9h1.53l-.76-1.9Zm5.79,8c-.9,0-1.6.67-1.6,1.7s.7,1.7,1.6,1.7,1.6-.67,1.6-1.7-.7-1.7-1.6-1.7Zm-17.35-8.3h-1.06v3.26h1.06c1.01,0,1.69-.6,1.69-1.63s-.68-1.63-1.69-1.63Zm-16.41-8.85l-1.28,2.91h2.56l-1.28-2.91Zm-6.93-.13h-1.44v2.67h1.44c1.08,0,1.65-.49,1.65-1.34s-.57-1.33-1.65-1.33Zm25.61,17.65l-.76,1.9h1.53l-.76-1.9Zm15.07-.37c-.9,0-1.6.67-1.6,1.7s.7,1.7,1.6,1.7,1.6-.67,1.6-1.7-.7-1.7-1.6-1.7Zm-5.79-8l-.76,1.9h1.53l-.76-1.9Zm-9.28,8.37l-.76,1.9h1.53l-.76-1.9Zm-2.28-8.68h-1.06v3.26h1.06c1.01,0,1.69-.6,1.69-1.63s-.68-1.63-1.69-1.63Zm-16.41-8.85l-1.28,2.91h2.56l-1.28-2.91Zm-6.93-.13h-1.44v2.67h1.44c1.08,0,1.65-.49,1.65-1.34s-.57-1.33-1.65-1.33Zm34.89,9.28l-.76,1.9h1.53l-.76-1.9Zm5.79,8c-.9,0-1.6.67-1.6,1.7s.7,1.7,1.6,1.7,1.6-.67,1.6-1.7-.7-1.7-1.6-1.7Zm-17.35-8.3h-1.06v3.26h1.06c1.01,0,1.69-.6,1.69-1.63s-.68-1.63-1.69-1.63Zm-16.41-8.85l-1.28,2.91h2.56l-1.28-2.91Zm-6.93-.13h-1.44v2.67h1.44c1.08,0,1.65-.49,1.65-1.34s-.57-1.33-1.65-1.33Zm25.61,17.65l-.76,1.9h1.53l-.76-1.9Zm15.07-.37c-.9,0-1.6.67-1.6,1.7s.7,1.7,1.6,1.7,1.6-.67,1.6-1.7-.7-1.7-1.6-1.7Zm-5.79-8l-.76,1.9h1.53l-.76-1.9Zm-9.28,8.37l-.76,1.9h1.53l-.76-1.9Zm-2.28-8.68h-1.06v3.26h1.06c1.01,0,1.69-.6,1.69-1.63s-.68-1.63-1.69-1.63Zm-16.41-8.85l-1.28,2.91h2.56l-1.28-2.91Zm-6.93-.13h-1.44v2.67h1.44c1.08,0,1.65-.49,1.65-1.34s-.57-1.33-1.65-1.33Zm40.68,17.28c-.9,0-1.6.67-1.6,1.7s.7,1.7,1.6,1.7,1.6-.67,1.6-1.7-.7-1.7-1.6-1.7Zm-5.79-8l-.76,1.9h1.53l-.76-1.9Zm-9.28,8.37l-.76,1.9h1.53l-.76-1.9Zm-2.28-8.68h-1.06v3.26h1.06c1.01,0,1.69-.6,1.69-1.63s-.68-1.63-1.69-1.63Zm-16.41-8.85l-1.28,2.91h2.56l-1.28-2.91Zm-6.93-.13h-1.44v2.67h1.44c1.08,0,1.65-.49,1.65-1.34s-.57-1.33-1.65-1.33Zm40.68,17.28c-.9,0-1.6.67-1.6,1.7s.7,1.7,1.6,1.7,1.6-.67,1.6-1.7-.7-1.7-1.6-1.7Zm-5.79-8l-.76,1.9h1.53l-.76-1.9Zm-9.28,8.37l-.76,1.9h1.53l-.76-1.9Zm-2.28-8.68h-1.06v3.26h1.06c1.01,0,1.69-.6,1.69-1.63s-.68-1.63-1.69-1.63Zm-16.41-8.85l-1.28,2.91h2.56l-1.28-2.91Zm-6.93-.13h-1.44v2.67h1.44c1.08,0,1.65-.49,1.65-1.34s-.57-1.33-1.65-1.33Zm40.68,17.28c-.9,0-1.6.67-1.6,1.7s.7,1.7,1.6,1.7,1.6-.67,1.6-1.7-.7-1.7-1.6-1.7Zm-5.79-8l-.76,1.9h1.53l-.76-1.9Zm-9.28,8.37l-.76,1.9h1.53l-.76-1.9Zm-2.28-8.68h-1.06v3.26h1.06c1.01,0,1.69-.6,1.69-1.63s-.68-1.63-1.69-1.63Zm-16.41-8.85l-1.28,2.91h2.56l-1.28-2.91Zm-6.93-.13h-1.44v2.67h1.44c1.08,0,1.65-.49,1.65-1.34s-.57-1.33-1.65-1.33Zm40.68,17.28c-.9,0-1.6.67-1.6,1.7s.7,1.7,1.6,1.7,1.6-.67,1.6-1.7-.7-1.7-1.6-1.7Zm-5.79-8l-.76,1.9h1.53l-.76-1.9Zm-9.28,8.37l-.76,1.9h1.53l-.76-1.9Zm-2.28-8.68h-1.06v3.26h1.06c1.01,0,1.69-.6,1.69-1.63s-.68-1.63-1.69-1.63Zm-16.41-8.85l-1.28,2.91h2.56l-1.28-2.91Zm-6.93-.13h-1.44v2.67h1.44c1.08,0,1.65-.49,1.65-1.34s-.57-1.33-1.65-1.33Zm40.68,17.28c-.9,0-1.6.67-1.6,1.7s.7,1.7,1.6,1.7,1.6-.67,1.6-1.7-.7-1.7-1.6-1.7Zm-5.79-8l-.76,1.9h1.53l-.76-1.9Zm-9.28,8.37l-.76,1.9h1.53l-.76-1.9Zm-2.28-8.68h-1.06v3.26h1.06c1.01,0,1.69-.6,1.69-1.63s-.68-1.63-1.69-1.63Zm-16.41-8.85l-1.28,2.91h2.56l-1.28-2.91Zm-6.93-.13h-1.44v2.67h1.44c1.08,0,1.65-.49,1.65-1.34s-.57-1.33-1.65-1.33Zm40.68,17.28c-.9,0-1.6.67-1.6,1.7s.7,1.7,1.6,1.7,1.6-.67,1.6-1.7-.7-1.7-1.6-1.7Zm-5.79-8l-.76,1.9h1.53l-.76-1.9Zm-9.28,8.37l-.76,1.9h1.53l-.76-1.9Zm-2.28-8.68h-1.06v3.26h1.06c1.01,0,1.69-.6,1.69-1.63s-.68-1.63-1.69-1.63Zm-16.41-8.85l-1.28,2.91h2.56l-1.28-2.91Zm-6.93-.13h-1.44v2.67h1.44c1.08,0,1.65-.49,1.65-1.34s-.57-1.33-1.65-1.33Zm40.68,17.28c-.9,0-1.6.67-1.6,1.7s.7,1.7,1.6,1.7,1.6-.67,1.6-1.7-.7-1.7-1.6-1.7Zm-5.79-8l-.76,1.9h1.53l-.76-1.9Zm-9.28,8.37l-.76,1.9h1.53l-.76-1.9Zm-2.28-8.68h-1.06v3.26h1.06c1.01,0,1.69-.6,1.69-1.63s-.68-1.63-1.69-1.63Zm17.35,8.3c-.9,0-1.6.67-1.6,1.7s.7,1.7,1.6,1.7,1.6-.67,1.6-1.7-.7-1.7-1.6-1.7Zm-5.79-8l-.76,1.9h1.53l-.76-1.9Zm-9.28,8.37l-.76,1.9h1.53l-.76-1.9Zm-2.28-8.68h-1.06v3.26h1.06c1.01,0,1.69-.6,1.69-1.63s-.68-1.63-1.69-1.63Zm17.35,8.3c-.9,0-1.6.67-1.6,1.7s.7,1.7,1.6,1.7,1.6-.67,1.6-1.7-.7-1.7-1.6-1.7Zm-5.79-8l-.76,1.9h1.53l-.76-1.9Zm-9.28,8.37l-.76,1.9h1.53l-.76-1.9Zm-2.28-8.68h-1.06v3.26h1.06c1.01,0,1.69-.6,1.69-1.63s-.68-1.63-1.69-1.63Zm17.35,8.3c-.9,0-1.6.67-1.6,1.7s.7,1.7,1.6,1.7,1.6-.67,1.6-1.7-.7-1.7-1.6-1.7Zm-5.79-8l-.76,1.9h1.53l-.76-1.9Zm-9.28,8.37l-.76,1.9h1.53l-.76-1.9Zm-2.28-8.68h-1.06v3.26h1.06c1.01,0,1.69-.6,1.69-1.63s-.68-1.63-1.69-1.63Zm17.35,8.3c-.9,0-1.6.67-1.6,1.7s.7,1.7,1.6,1.7,1.6-.67,1.6-1.7-.7-1.7-1.6-1.7Zm-5.79-8l-.76,1.9h1.53l-.76-1.9Zm-9.28,8.37l-.76,1.9h1.53l-.76-1.9Zm15.07-.37c-.9,0-1.6.67-1.6,1.7s.7,1.7,1.6,1.7,1.6-.67,1.6-1.7-.7-1.7-1.6-1.7Zm-5.79-8l-.76,1.9h1.53l-.76-1.9Zm-9.28,8.37l-.76,1.9h1.53l-.76-1.9Zm0,0l-.76,1.9h1.53l-.76-1.9Zm15.07-.37c-.9,0-1.6.67-1.6,1.7s.7,1.7,1.6,1.7,1.6-.67,1.6-1.7-.7-1.7-1.6-1.7Zm0,0c-.9,0-1.6.67-1.6,1.7s.7,1.7,1.6,1.7,1.6-.67,1.6-1.7-.7-1.7-1.6-1.7Zm-15.07.37l-.76,1.9h1.53l-.76-1.9Zm0,0l-.76,1.9h1.53l-.76-1.9Zm0,0l-.76,1.9h1.53l-.76-1.9Z"/>
          <g>
            <path class="cls-1" d="m235.73,13.85v36.37h54.08V13.85h-54.08Zm47.3,2.5c.94,0,1.74.31,2.28.92l-.52.53c-.49-.48-1.05-.69-1.72-.69-1.37,0-2.37.96-2.37,2.28s.99,2.28,2.36,2.28c.5,0,.97-.11,1.39-.38v-1.93h.81v2.31c-.59.5-1.41.75-2.25.75-1.82,0-3.16-1.28-3.16-3.03s1.34-3.03,3.18-3.03Zm-2,14.37h-1.75l-.47-1.15h-2.51l-.47,1.15h-1.71l2.62-5.93h1.65l2.63,5.93Zm-4.97,7.1c.31,0,.61-.06.91-.19v-1.63h1.48v2.46c-.69.49-1.63.76-2.49.76-1.89,0-3.27-1.28-3.27-3.09s1.38-3.09,3.31-3.09c1.11,0,2.01.38,2.59,1.09l-1.07.97c-.41-.45-.87-.66-1.44-.66-1.02,0-1.7.67-1.7,1.7s.68,1.7,1.68,1.7Zm-3.46-21.4h.7l3.56,4.42v-4.42h.85v5.93h-.7l-3.56-4.42v4.42h-.85v-5.93Zm-1.48,8.37h1.68v5.93h-1.68v-5.93Zm-2-8.37h.85v5.93h-.85v-5.93Zm.27,11.34c0,1.82-1.35,2.97-3.32,2.97h-2.81v-5.93h2.81c1.97,0,3.32,1.14,3.32,2.97Zm-7.21-11.34h.85v3.31l3.22-3.31h.97l-2.53,2.67,2.69,3.26h-.99l-2.27-2.64-1.09,1.1v1.53h-.85v-5.93Zm-2.59,8.37h1.65v5.93h-1.38l-2.62-3.16v3.16h-1.64v-5.93h1.38l2.62,3.16v-3.16Zm-5.14-8.37h.7l3.56,4.42v-4.42h.85v5.93h-.7l-3.56-4.42v4.42h-.85v-5.93Zm.14,16.74v5.93h-1.68v-5.93h1.68Zm-.98-5.08c0,1.77-1.03,2.76-2.79,2.76s-2.79-.99-2.79-2.76v-3.29h1.68v3.24c0,1.02.42,1.42,1.13,1.42s1.12-.41,1.12-1.42v-3.24h1.65v3.29Zm-4.42-11.66h.84l2.7,5.93h-.89l-.65-1.48h-3.15l-.65,1.48h-.87l2.69-5.93Zm-8.8,0h2.31c1.54,0,2.48.78,2.48,2.07,0,.92-.48,1.58-1.31,1.87l1.41,1.99h-.92l-1.28-1.82c-.12,0-.25.02-.37.02h-1.47v1.81h-.85v-5.93Zm2.89,28.29c0,1.5-.82,2.29-2.19,2.29s-2.19-.79-2.19-2.29v-2.94h.74v2.91c0,1.15.53,1.66,1.46,1.66s1.46-.52,1.46-1.66v-2.91h.72v2.94Zm-1.72-5.49c-.97,0-1.94-.26-2.5-.65l.55-1.24c.53.35,1.27.59,1.96.59s.97-.19.97-.48c0-.94-3.37-.25-3.37-2.46,0-1.06.87-1.92,2.63-1.92.77,0,1.57.18,2.15.52l-.52,1.25c-.57-.31-1.13-.46-1.64-.46-.7,0-.96.24-.96.53,0,.91,3.37.23,3.37,2.42,0,1.03-.86,1.92-2.63,1.92Zm2.93-11.64l-1.53,2.56h-.75l-1.52-2.48v3.06h-1.55v-5.93h1.38l2.09,3.42,2.03-3.42h1.38l.02,5.93h-1.54l-.02-3.15Zm5.5,19.36h-.61l-3.11-3.86v3.86h-.74v-5.18h.61l3.11,3.86v-3.86h.74v5.18Zm-1.14-9.12c.57,0,1.02-.25,1.4-.7l1.07.97c-.58.72-1.46,1.12-2.55,1.12-1.88,0-3.26-1.28-3.26-3.09s1.21-3.09,3.09-3.09c1.09,0,2.14.4,2.72,1.12l-1.07.97c-.37-.45-.83-.7-1.4-.7-.98,0-1.65.68-1.65,1.7s.68,1.7,1.65,1.7Zm7.3,9.12l-.57-1.29h-2.75l-.57,1.29h-.76l2.34-5.18h.73l2.35,5.18h-.78Zm6.74,0h-.74v-2.31h-2.97v2.31h-.74v-5.18h.74v2.23h2.97v-2.23h.74v5.18Zm-.9-7.85l-.02-3.14-1.53,2.56h-.75l-1.52-2.48v3.06h-1.55v-5.93h1.38l2.09,3.42,2.04-3.42h1.38l.02,5.93h-1.54Zm9.13,7.85h-3.72v-.5l2.11-2.03c.55-.53.65-.86.65-1.18,0-.53-.38-.86-1.1-.86-.55,0-1.01.18-1.32.56l-.5-.44c.4-.5,1.09-.78,1.89-.78,1.08,0,1.77.55,1.77,1.44,0,.5-.15.95-.85,1.63l-1.58,1.52h2.66v.64Zm-1.12-7.85l-.47-1.15h-2.51l-.47,1.15h-1.71l2.62-5.93h1.65l2.63,5.93h-1.75Zm4.55,7.91c-1.21,0-2.12-.96-2.12-2.65s.9-2.65,2.12-2.65,2.11.96,2.11,2.65-.9,2.65-2.11,2.65Zm7.17-.06h-3.72v-.5l2.11-2.03c.55-.53.65-.86.65-1.18,0-.53-.38-.86-1.1-.86-.55,0-1.01.18-1.32.56l-.5-.44c.4-.5,1.09-.78,1.89-.78,1.08,0,1.77.55,1.77,1.44,0,.5-.15.95-.85,1.63l-1.58,1.52h2.66v.64Zm2.93.06c-.74,0-1.46-.24-1.9-.63l.34-.58c.35.33.92.55,1.56.55.78,0,1.22-.36,1.22-.92s-.39-.9-1.28-.9h-.41v-.52l1.3-1.6h-2.49v-.64h3.42v.5l-1.35,1.67c1.04.1,1.56.68,1.56,1.48,0,.87-.64,1.58-1.96,1.58Zm-1.3-7.79c-1.9,0-3.3-1.31-3.3-3.09s1.23-3.09,3.13-3.09,3.47,1.31,3.47,3.09-1.4,3.09-3.3,3.09Zm3.5-8.49h-4.51v-5.93h1.68v4.6h2.83v1.33Z"/>
            <polygon class="cls-1" points="253.1 45.05 255.33 45.05 254.21 42.52 253.1 45.05"/>
            <path class="cls-1" d="m274.57,42.36c-.81,0-1.38.67-1.38,1.99s.56,1.99,1.38,1.99,1.37-.67,1.37-1.99-.56-1.99-1.37-1.99Z"/>
          </g>
          <path class="cls-1" d="m206.67,33.69s-.04.08-.07.11h0s.04-.08.07-.11Z"/>
          <polygon class="cls-1" points="208.09 31.82 207.94 31.99 208.09 31.82 208.09 31.82"/>
          <g>
            <path class="cls-1" d="m225.71,44.11l-.13-.37-.11-.26c-.35-.84-.84-1.6-1.46-2.26l-.24-.26c-.61-.61-1.32-1.12-2.12-1.52l-.35-.16-.18-.07c-.67-.28-1.38-.46-2.11-.55l-.26-.02-.5-.03h-.77s-.07.03-.07.03h-.21c-.7.09-1.42.26-2.11.53l-.23.09-.36.17c-.79.38-1.51.9-2.16,1.53l-.24.25c-.61.66-1.1,1.41-1.45,2.21l-.16.38-.12.35c-.28.82-.42,1.68-.42,2.55l.02.42c.04.89.23,1.77.58,2.62l.2.45.02.05h14.53l.04-.06h0s.19-.42.19-.42c.35-.86.55-1.76.59-2.68,0,0,0-.09,0-.18,0-.09,0-.19,0-.2,0-.86-.14-1.73-.43-2.57Zm-13.58.65c.41-.4.99-.7,1.65-.82-.25.2-.42.5-.42.85,0,.3.12.56.31.76-.61-.14-1.15-.42-1.54-.79Zm2.31.79c-.42,0-.76-.34-.76-.76s.34-.75.76-.75.76.34.76.75-.34.76-.76.76Zm.76,0c.2-.2.31-.46.31-.76,0-.35-.17-.66-.43-.85.31.05.61.14.88.27-.38-.49-.91-.86-1.57-1.05-.86-.23-1.78-.13-2.63.25,0-.02-.02-.04-.02-.07.93-.57,2.08-.77,3.11-.49,1.04.29,1.76,1.01,2.04,1.91-.1.05-.19.1-.28.15-.38.31-.86.53-1.41.65Zm2.7,3.86l-1.28-.44,1.39-.34-.06-3.56.48-.08.75,4.06-1.28.36Zm3.89-3.86c-.41,0-.75-.34-.75-.76s.34-.75.75-.75.77.34.77.75-.35.76-.77.76Zm.77,0c.19-.2.31-.46.31-.76,0-.35-.16-.66-.42-.85.67.12,1.24.42,1.65.82-.38.37-.92.65-1.54.79Zm1.9-2.14c-.85-.38-1.78-.48-2.63-.25-.66.19-1.19.56-1.56,1.05.27-.12.57-.21.88-.27-.25.19-.42.5-.42.85,0,.3.12.56.31.76-.55-.12-1.03-.34-1.41-.65-.1-.05-.2-.09-.28-.15.27-.91.99-1.63,2.03-1.91,1.04-.28,2.18-.08,3.11.49-.01.03-.02.05-.03.07Z"/>
            <path class="cls-1" d="m209.84,50.01l.09.21h-8.54v-3.78h7.81c0,.08,0,.16,0,.25v.45c.02.28.05.55.09.81l-4.04,1.15.21.74,3.98-1.13c.02.07.03.14.05.21.1.37.22.74.35,1.09Z"/>
            <path class="cls-1" d="m201.39,37.98l8.85,4.54c-.1.19-.19.38-.28.57l-.17.41-.1.29-4.35-1.09-.18.75,4.31,1.08c-.09.35-.16.72-.21,1.13h-7.87v-7.68Z"/>
            <path class="cls-1" d="m210.63,35.33l2.45,4.03c-.34.23-.65.47-.96.75l-3.32-3.22-.54.56,3.31,3.21-.02.02c-.33.35-.63.75-.91,1.18l-9.25-4.74v-1.77h9.24Z"/>
            <path class="cls-1" d="m215.22,38.29c-.12.04-.25.09-.37.13h-.03s0,.02,0,.02c-.03.01-.14.06-.24.09l-.41.19c-.17.08-.31.16-.44.23l-2.2-3.61h2.84l.84,2.96Z"/>
            <path class="cls-1" d="m215.18,35.33h2.76v2.49l-.5.02h-.05l-.24.02c-.4.04-.8.12-1.19.21l-.78-2.74Z"/>
            <path class="cls-1" d="m218.71,35.33h2.73l-.72,2.89c-.55-.17-1.1-.28-1.62-.34l-.28-.03h-.1v-2.52Z"/>
            <path class="cls-1" d="m226.07,35.33l-2.78,4.2c-.41-.3-.84-.57-1.29-.79l-.39-.18-.16-.07.79-3.16h3.83Z"/>
            <path class="cls-1" d="m234.63,35.33v1.97l-8.84,5.05c-.15-.28-.33-.55-.53-.82l3.2-2.9-.53-.58-3.15,2.86c-.06-.07-.12-.14-.19-.21,0,0-.01-.01-.02-.02l-.25-.27h0c-.14-.14-.28-.28-.44-.41l3.11-4.68h7.64Z"/>
            <path class="cls-1" d="m226.71,48.6h0s0-.02,0-.02c0,0,0,.02,0,.02Z"/>
            <path class="cls-1" d="m234.63,46.44v3.78h-8.45l.04-.08.02-.04.03-.06c.17-.41.29-.82.39-1.19l3.79.95.19-.76-3.83-.96c.05-.33.09-.65.11-.98v-.41c0-.08,0-.17,0-.25h7.72Z"/>
            <path class="cls-1" d="m234.63,38.2v7.46h-7.78c-.05-.36-.1-.67-.16-.97l3.84-1.1-.21-.74-3.84,1.09s-.02-.06-.03-.09l-.15-.4-.11-.27s-.03-.06-.05-.09c0,0-.01-.02-.01-.03l8.49-4.86Z"/>
            <polygon class="cls-1" points="226.39 50.22 226.18 50.22 226.22 50.14 226.39 50.22"/>
            <path class="cls-1" d="m226.72,48.57s0,.02,0,.02h0s0-.02,0-.02Z"/>
            <path class="cls-1" d="m226.71,48.6h0s0-.02,0-.02c0,0,0,.02,0,.02Z"/>
          </g>
        </g>
      </g>
      <g>
        <path class="cls-1" d="m47.41,2.08H0v37.53c0,13.09,10.61,23.7,23.7,23.7s23.7-10.61,23.7-23.7V2.08h0Zm-2.82,37.53c0,11.51-9.37,20.88-20.88,20.88S2.82,51.12,2.82,39.61V4.9h41.76v34.71Z"/>
        <path class="cls-1" d="m43.88,5.6v34c0,6.88-3.46,12.96-8.73,16.6,5.27-3.64,8.73-9.73,8.73-16.6V5.6H3.53s40.35,0,40.35,0h0Z"/>
        <path class="cls-1" d="m23.7,59.78c4.12,0,7.95-1.24,11.14-3.36.1-.07.21-.14.31-.21,5.27-3.64,8.73-9.73,8.73-16.6V5.6h0s-40.35,0-40.35,0v34c0,11.12,9.05,20.18,20.18,20.18ZM4.66,6.73h38.09v32.87c0,10.5-8.54,19.05-19.05,19.05S4.66,50.11,4.66,39.61V6.73Z"/>
        <path class="cls-1" d="m23.7,59.78c4.12,0,7.95-1.24,11.14-3.36.1-.07.21-.14.31-.21,5.27-3.64,8.73-9.73,8.73-16.6V5.6h0s-40.35,0-40.35,0v34c0,11.12,9.05,20.18,20.18,20.18ZM4.66,6.73h38.09v32.87c0,10.5-8.54,19.05-19.05,19.05S4.66,50.11,4.66,39.61V6.73Z"/>
        <path class="cls-1" d="m23.7,57.1c9.66,0,17.49-7.83,17.49-17.49s-7.83-17.49-17.49-17.49S6.21,29.94,6.21,39.61s7.83,17.49,17.49,17.49Zm-.03-34.79c9.51,0,17.21,7.71,17.21,17.21s-7.71,17.21-17.21,17.21-17.21-7.71-17.21-17.21,7.71-17.21,17.21-17.21Z"/>
        <path class="cls-1" d="m23.67,56.73c9.51,0,17.21-7.71,17.21-17.21s-7.71-17.21-17.21-17.21S6.46,30.01,6.46,39.52s7.71,17.21,17.21,17.21Zm.03-33.77c9.19,0,16.65,7.45,16.65,16.65s-7.45,16.65-16.65,16.65-16.65-7.45-16.65-16.65,7.45-16.65,16.65-16.65Z"/>
        <path class="cls-1" d="m23.67,56.73c9.51,0,17.21-7.71,17.21-17.21s-7.71-17.21-17.21-17.21S6.46,30.01,6.46,39.52s7.71,17.21,17.21,17.21Zm.03-33.77c9.19,0,16.65,7.45,16.65,16.65s-7.45,16.65-16.65,16.65-16.65-7.45-16.65-16.65,7.45-16.65,16.65-16.65Z"/>
        <path class="cls-1" d="m23.7,56.25c9.19,0,16.65-7.45,16.65-16.65s-7.45-16.65-16.65-16.65S7.05,30.41,7.05,39.61s7.45,16.65,16.65,16.65Zm-15.84-16.79c.03-8.7,7.09-15.75,15.8-15.75,0,0,0,0,0,0s0,0,0,0c7.05,0,13.03,4.62,15.06,11h.08c.46,1.49.71,3.07.71,4.7s-.25,3.22-.71,4.7h-.02c-1.97,6.48-7.99,11.2-15.12,11.2h0c-8.71,0-15.77-7.05-15.8-15.75v-.11Z"/>
        <path class="cls-1" d="m38.72,34.72h0c-2.03-6.38-8.01-11-15.06-11,0,0,0,0,0,0,7.05,0,13.02,4.62,15.06,11Z"/>
        <path class="cls-1" d="m23.67,55.32h0c7.12,0,13.15-4.72,15.12-11.2h0c-1.97,6.48-7.99,11.2-15.12,11.2Z"/>
        <path class="cls-1" d="m23.66,55.32h0c-8.71,0-15.77-7.05-15.8-15.75v-.11c.03-8.7,7.09-15.75,15.8-15.75,0,0,0,0,0,0-8.71,0-15.77,7.05-15.8,15.75v.11c.03,8.7,7.09,15.75,15.8,15.75Z"/>
        <path class="cls-1" d="m23.68,53.64c6.18,0,11.44-3.98,13.35-9.51H10.33c1.91,5.54,7.16,9.51,13.35,9.51Z"/>
        <path class="cls-1" d="m23.68,25.4c-6.11,0-11.32,3.88-13.28,9.32h26.56c-1.96-5.43-7.17-9.32-13.28-9.32Z"/>
        <polygon class="cls-1" points="15.33 10.32 15.64 9.42 15.96 10.32 16.22 10.32 16.7 8.93 16.38 8.93 16.09 9.86 15.78 8.93 15.51 8.93 15.2 9.86 14.91 8.93 14.58 8.93 15.06 10.32 15.33 10.32"/>
        <path class="cls-1" d="m17.47,10.33c.43,0,.74-.32.74-.71h0c0-.4-.31-.71-.74-.71s-.74.32-.74.71h0c0,.4.31.71.74.71Zm-.42-.72c0-.24.17-.43.42-.43s.42.2.42.43h0c0,.24-.17.43-.42.43s-.42-.2-.42-.43h0Z"/>
        <path class="cls-1" d="m18.72,9.87h.24l.3.44h.36l-.34-.49c.18-.07.3-.2.3-.43h0c0-.13-.04-.24-.12-.32-.09-.09-.23-.14-.41-.14h-.64v1.38h.31v-.44Zm0-.66h.31c.15,0,.24.07.24.2h0c0,.12-.09.2-.24.2h-.31v-.4Z"/>
        <polygon class="cls-1" points="20.81 10.03 20.12 10.03 20.12 8.93 19.81 8.93 19.81 10.31 20.81 10.31 20.81 10.03"/>
        <path class="cls-1" d="m22.25,9.62h0c0-.39-.3-.69-.74-.69h-.54v1.38h.54c.44,0,.74-.3.74-.69Zm-.98-.42h.24c.25,0,.42.17.42.42h0c0,.25-.17.42-.42.42h-.24v-.83Z"/>
        <path class="cls-1" d="m15.98,11.45h-.31v.79c0,.22-.11.33-.3.33s-.3-.12-.3-.34v-.78h-.31v.79c0,.41.23.61.6.61s.61-.2.61-.62v-.78Z"/>
        <polygon class="cls-1" points="17.2 12.83 17.46 12.83 17.46 11.45 17.15 11.45 17.15 12.3 16.5 11.45 16.22 11.45 16.22 12.83 16.52 12.83 16.52 11.95 17.2 12.83"/>
        <rect class="cls-1" x="17.72" y="11.45" width=".31" height="1.38"/>
        <polygon class="cls-1" points="18.87 12.42 18.51 11.45 18.17 11.45 18.73 12.84 19.01 12.84 19.57 11.45 19.24 11.45 18.87 12.42"/>
        <polygon class="cls-1" points="20.78 12.56 20.02 12.56 20.02 12.27 20.68 12.27 20.68 12 20.02 12 20.02 11.72 20.77 11.72 20.77 11.45 19.71 11.45 19.71 12.83 20.78 12.83 20.78 12.56"/>
        <path class="cls-1" d="m22.16,11.91h0c0-.13-.04-.24-.12-.32-.09-.09-.23-.14-.41-.14h-.64v1.38h.31v-.44h.24l.3.44h.36l-.34-.49c.18-.07.3-.2.3-.43Zm-.31.02c0,.12-.09.19-.24.19h-.31v-.4h.31c.15,0,.24.07.24.2h0Z"/>
        <path class="cls-1" d="m22.91,12.58c-.16,0-.29-.07-.42-.17l-.18.21c.17.15.38.22.59.22.3,0,.51-.15.51-.43h0c0-.24-.16-.34-.44-.42-.24-.06-.3-.09-.3-.18h0c0-.07.06-.12.18-.12s.24.05.36.14l.16-.23c-.14-.11-.32-.18-.52-.18-.29,0-.49.17-.49.42h0c0,.28.18.35.46.43.23.06.28.1.28.18h0c0,.08-.08.13-.2.13Z"/>
        <rect class="cls-1" x="23.62" y="11.45" width=".31" height="1.38"/>
        <polygon class="cls-1" points="24.81 12.83 24.81 11.73 25.23 11.73 25.23 11.45 24.08 11.45 24.08 11.73 24.5 11.73 24.5 12.83 24.81 12.83"/>
        <polygon class="cls-1" points="26.15 12.83 26.15 12.28 26.69 11.45 26.34 11.45 26 12 25.67 11.45 25.31 11.45 25.85 12.28 25.85 12.83 26.15 12.83"/>
        <path class="cls-1" d="m15.92,14.43h0c0-.13-.04-.24-.12-.32-.09-.09-.23-.14-.41-.14h-.64v1.38h.31v-.44h.24l.3.44h.36l-.34-.49c.18-.07.3-.2.3-.43Zm-.31.02c0,.12-.09.2-.24.2h-.31v-.4h.31c.15,0,.24.07.24.2h0Z"/>
        <path class="cls-1" d="m16.34,15.35l.13-.31h.59l.13.31h.32l-.6-1.39h-.28l-.6,1.39h.31Zm.42-1.02l.19.45h-.37l.19-.45Z"/>
        <polygon class="cls-1" points="17.65 15.35 17.96 15.35 17.96 14.47 18.63 15.35 18.89 15.35 18.89 13.97 18.59 13.97 18.59 14.82 17.94 13.97 17.65 13.97 17.65 15.35"/>
        <polygon class="cls-1" points="20.03 13.97 19.46 14.57 19.46 13.97 19.16 13.97 19.16 15.35 19.46 15.35 19.46 14.92 19.62 14.76 20.06 15.35 20.43 15.35 19.83 14.55 20.4 13.97 20.03 13.97"/>
        <rect class="cls-1" x="20.57" y="13.97" width=".31" height="1.38"/>
        <polygon class="cls-1" points="21.42 13.97 21.14 13.97 21.14 15.35 21.44 15.35 21.44 14.47 22.12 15.35 22.38 15.35 22.38 13.97 22.08 13.97 22.08 14.82 21.42 13.97"/>
        <path class="cls-1" d="m23.91,14.55h-.61v.26h.31v.2c-.08.06-.18.08-.29.08-.25,0-.42-.19-.42-.44h0c0-.24.18-.43.4-.43.16,0,.26.05.36.14l.19-.23c-.15-.12-.3-.19-.55-.19-.42,0-.73.32-.73.71h0c0,.41.3.71.73.71.26,0,.45-.1.6-.22v-.6Z"/>
        <path class="cls-1" d="m24.66,15.1c-.16,0-.29-.07-.42-.17l-.18.21c.17.15.38.22.59.22.3,0,.51-.15.51-.43h0c0-.24-.16-.34-.44-.42-.24-.06-.3-.09-.3-.18h0c0-.07.06-.12.18-.12s.24.05.36.14l.16-.23c-.14-.11-.32-.18-.52-.18-.29,0-.49.17-.49.42h0c0,.28.18.35.46.43.23.06.28.1.28.18h0c0,.08-.08.13-.2.13Z"/>
        <path class="cls-1" d="m13.56,8.57h-7.21v7.12h7.21v-7.12Zm-2.66,5.35l-1.39-.65c-.2.1-.43.16-.67.16-.8,0-1.45-.64-1.45-1.44s.65-1.44,1.45-1.44,1.45.64,1.45,1.44c0,.3-.09.58-.25.81l-.44-.36c.08-.13.13-.28.13-.45,0-.48-.4-.87-.88-.87s-.88.39-.88.87.4.87.88.87c.23,0,.43-.08.59-.22l1.52,1.21-.04.06Zm1.57-1.37c0,.55-.43.86-1.03.86-.4,0-.79-.13-1.12-.38h0s0,0,0,0c-.02-.02-.05-.04-.07-.06h0c.11-.16.2-.34.25-.54h0s.02.02.03.03h0s0,0,0,0c.03.03.06.06.07.06,0,0,0,0,.01.01.25.21.52.34.84.34.25,0,.41-.1.41-.26h0c0-.16-.1-.24-.57-.36-.57-.14-.93-.3-.93-.85h0c0-.51.41-.85.98-.85.41,0,.76.13,1.04.35l-.32.46c-.25-.17-.49-.27-.73-.27s-.36.11-.36.24h0c0,.19.12.25.61.37.57.15.89.35.89.83h0Z"/>
        <rect class="cls-1" x="23.28" y="8.57" width="9.96" height="1.98"/>
        <rect class="cls-1" x="27.76" y="11.14" width="5.48" height="1.98"/>
        <rect class="cls-1" x="26.26" y="13.72" width="6.98" height="1.98"/>
        <path class="cls-1" d="m41.48,15.69h0v-7.12h0s-7.21,0-7.21,0v7.12h0s7.21,0,7.21,0Zm-5.42-1.89v.29h-.11v-.29l-.3-.44h.13l.23.35.23-.35h.12l-.3.44Zm1.19.29h-.55v-.73h.55v.1h-.44v.22h.29v.09h-.29v.23h.44v.1Zm.94,0l-.09-.21h-.33l-.09.21h-.12l.31-.73h.13l.3.73h-.12Zm.94,0l-.15-.3h-.21v.3h-.11v-.73h.34c.07,0,.13.02.18.06.05.04.07.09.07.16,0,.05-.01.09-.04.13-.03.04-.06.06-.11.08l.17.31h-.12Zm1.02-.12s-.03.05-.06.07c-.03.02-.06.03-.09.05-.04.01-.08.02-.12.02-.06,0-.12-.01-.17-.03-.06-.02-.1-.06-.15-.1l.07-.08s.08.07.12.09c.04.02.09.03.13.03.05,0,.1-.01.13-.03.03-.02.05-.05.05-.09,0-.03-.01-.06-.03-.07-.02-.02-.06-.03-.12-.04l-.12-.02c-.07-.01-.12-.03-.15-.06s-.05-.07-.05-.13c0-.06.03-.11.08-.15.05-.04.12-.06.2-.06.05,0,.11,0,.16.03.05.02.1.04.14.07l-.06.08s-.08-.05-.12-.07c-.04-.01-.08-.02-.12-.02-.05,0-.09.01-.12.03-.03.02-.04.05-.04.08,0,.03.01.05.03.07s.05.03.1.04l.12.02c.08.01.13.04.17.07.04.03.06.08.06.13,0,.03,0,.06-.02.09Zm-2.18-3c.06-.17.14-.31.25-.43.11-.12.23-.21.38-.28.15-.07.32-.1.5-.1s.35.03.5.1c.15.07.28.16.38.28.11.12.19.26.25.43.06.17.09.35.09.56s-.03.39-.09.56c-.06.17-.14.31-.25.43-.11.12-.23.21-.38.28-.15.07-.32.1-.5.1s-.35-.03-.5-.1c-.15-.07-.28-.16-.38-.28-.11-.12-.19-.26-.25-.43-.06-.17-.09-.36-.09-.56s.03-.39.09-.56Zm-1.92-.69c.18-.07.37-.11.56-.11.15,0,.29.02.42.06.13.04.23.1.32.17.09.07.16.16.21.27.05.1.07.22.07.34,0,.15-.04.29-.12.42-.08.13-.21.27-.38.42l-.59.5h1.12v.51h-2v-.43l1.08-.93c.1-.09.17-.16.21-.24.04-.07.07-.15.07-.22,0-.1-.04-.19-.12-.25-.08-.07-.19-.1-.31-.1s-.24.03-.35.08-.23.13-.36.25l-.35-.41c.16-.14.33-.25.52-.33Z"/>
        <path class="cls-1" d="m39.09,12.37c.19,0,.34-.07.45-.22.11-.15.16-.35.16-.62s-.06-.46-.17-.61c-.11-.15-.26-.23-.45-.23s-.34.08-.45.23c-.11.15-.17.35-.17.61s.05.47.16.62c.11.15.26.22.45.22Z"/>
        <polygon class="cls-1" points="37.81 13.79 38.07 13.79 37.94 13.46 37.81 13.79"/>
        <path class="cls-1" d="m39.12,13.58s-.01-.07-.04-.09c-.03-.02-.06-.03-.1-.03h-.22v.24h.22s.08-.01.1-.03c.03-.02.04-.05.04-.09Z"/>
        <path class="cls-1" d="m19.71,19.42c-.03.06-.07.13-.12.2-.05.07-.11.16-.19.25l-.8.99.11.5,2.15-.45-.12-.55-1.26.27.4-.46c.11-.13.2-.24.28-.35.08-.1.14-.21.18-.3.04-.1.07-.2.08-.3.01-.1,0-.21-.02-.34h0c-.03-.14-.08-.26-.15-.36-.07-.1-.16-.18-.26-.24-.1-.06-.22-.1-.35-.11-.13-.02-.27,0-.42.02-.13.03-.24.07-.34.11-.1.05-.18.11-.25.18-.07.07-.14.15-.2.24-.06.09-.11.19-.16.3l.52.27c.08-.16.16-.27.23-.36.07-.08.17-.13.28-.16.12-.02.22-.01.3.04.09.05.14.13.17.26.01.06.02.12,0,.17,0,.05-.03.11-.05.18Z"/>
        <path class="cls-1" d="m21.13,19.38c.01.21.06.41.13.59s.17.34.29.47c.12.13.27.23.43.3.17.07.35.1.55.08.2-.01.37-.06.53-.15.16-.09.29-.21.4-.35.11-.15.19-.31.24-.5.05-.19.07-.39.06-.61h0c-.01-.22-.06-.42-.13-.6-.07-.18-.17-.34-.3-.47-.12-.13-.27-.23-.43-.3-.17-.07-.35-.1-.54-.08-.2.01-.37.06-.53.15-.16.09-.29.21-.4.35-.11.15-.19.31-.24.5-.05.19-.07.39-.06.61h0Zm.69-.43c.02-.12.06-.22.11-.3.05-.09.11-.16.19-.21.08-.05.16-.08.26-.09.1,0,.19.01.27.06.08.04.16.1.22.19.06.08.11.18.15.29.04.11.06.24.07.37h0c0,.14,0,.27-.02.39-.02.12-.06.22-.11.3-.05.09-.11.16-.19.21-.08.05-.16.08-.26.09s-.19-.01-.27-.06c-.08-.04-.16-.1-.22-.18-.06-.08-.11-.18-.15-.29-.04-.11-.06-.24-.07-.37h0c0-.14,0-.27.02-.39Z"/>
        <path class="cls-1" d="m25.96,19.63c.11-.08.19-.16.26-.24.07-.08.13-.17.17-.26.04-.09.07-.2.08-.33h0c.01-.15,0-.27-.04-.39-.04-.12-.1-.22-.18-.3-.08-.09-.18-.16-.31-.21-.12-.05-.26-.09-.41-.1-.13-.01-.25,0-.36.01-.11.02-.2.05-.29.1-.09.05-.18.1-.26.17-.08.07-.16.15-.24.25l.43.4c.12-.13.23-.22.32-.28.09-.06.2-.08.31-.07.12,0,.21.05.28.12s.1.17.09.3c0,.06-.02.12-.04.17-.02.05-.06.1-.1.15-.05.05-.1.1-.17.16-.07.06-.15.12-.25.18l-1.05.72-.04.51,2.19.18.05-.56-1.29-.1.51-.33c.14-.09.26-.17.36-.25Z"/>
        <path class="cls-1" d="m28.77,18.34l-2,1.48v.47s1.41.32,1.41.32l-.14.62.61.14.14-.62.39.09.12-.52-.39-.09.4-1.77-.54-.12Zm-.47,1.76l-.77-.17.97-.73-.2.9Z"/>
        <path class="cls-1" d="m14.55,39.82c.27-.1.49-.26.66-.48.17-.22.25-.5.25-.85h0c0-.42-.12-.74-.37-.99-.29-.29-.7-.43-1.24-.43h-1.95v4.27h.94v-1.37h.74l.92,1.37h.91l.07-.17-.93-1.36Zm-.04-1.28c0,.18-.06.33-.19.44-.12.11-.3.16-.53.16h-.95v-1.23h.93c.23,0,.41.05.54.15.13.1.2.25.2.46h0Z"/>
        <path class="cls-1" d="m17.24,37.04l-1.76,4.13-.07.17h.96l.39-.96h1.81l.39.96h.98l-1.83-4.3h-.87Zm-.15,2.51l.57-1.39.57,1.39h-1.14Z"/>
        <polygon class="cls-1" points="22.91 39.71 20.91 37.08 20.04 37.08 20.04 41.35 20.97 41.35 20.97 38.63 23.04 41.35 23.84 41.35 23.84 37.08 22.91 37.08 22.91 39.71"/>
        <polygon class="cls-1" points="28.13 37.08 26.99 37.08 25.26 38.94 25.26 37.08 24.32 37.08 24.32 41.35 25.26 41.35 25.26 40.04 25.76 39.53 27.08 41.35 28.21 41.35 26.39 38.89 28.13 37.08"/>
        <polygon class="cls-1" points="29.16 39.61 31.17 39.61 31.17 38.78 29.16 38.78 29.16 37.91 31.44 37.91 31.44 37.08 28.23 37.08 28.23 41.35 31.47 41.35 31.47 40.51 29.16 40.51 29.16 39.61"/>
        <path class="cls-1" d="m35.07,37.69c-.2-.19-.44-.34-.72-.45-.28-.11-.58-.16-.92-.16h-1.67v4.27h1.67c.33,0,.64-.05.92-.16.28-.11.52-.26.72-.45.2-.19.36-.42.47-.68s.16-.54.16-.84h0c0-.31-.05-.59-.16-.85-.11-.26-.27-.48-.47-.67Zm-.35,1.54c0,.19-.03.36-.09.52-.06.15-.15.29-.26.4-.11.11-.25.2-.41.26-.16.06-.33.09-.52.09h-.73v-2.58h.73c.19,0,.37.03.52.09.16.06.29.15.41.27.11.11.2.25.26.41.06.16.09.33.09.52h0Z"/>
      </g>
    </g>
  </g>
</svg>