<?xml version="1.0" encoding="UTF-8"?>
<svg id="Capa_2" data-name="Capa 2" xmlns="http://www.w3.org/2000/svg" viewBox="0 0 550.75 550.8">
  <defs>
    <style>
      .cls-1 {
        fill: #1c64ad;
      }

      .cls-2 {
        fill: #06afc0;
      }

      .cls-3 {
        fill: #d26c13;
      }

      .cls-4 {
        fill: #fac101;
      }
    </style>
  </defs>
  <g id="Capa_1-2" data-name="Capa 1">
    <g>
      <path class="cls-2" d="m120.42,0v74.94s-57.95,0-57.95,0c-6.42-10.89-18.35-18.2-31.92-18.2-12.73,0-23.87,6.36-30.55,16.04V30.3C0,13.56,13.56,0,30.3,0h90.13Z"/>
      <rect class="cls-2" x="88.29" y="212.29" width="32.13" height="62.21"/>
      <rect class="cls-2" x="97.86" y="403.4" width="22.56" height="57.79"/>
      <path class="cls-2" d="m50.38,174.33v138.15s70.05,0,70.05,0v52.96s-60.53,0-60.53,0v133.73s60.53,0,60.53,0v51.64s-90.13,0-90.13,0c-16.73,0-30.3-13.56-30.3-30.3V115.06c6.68,9.68,17.88,16.04,30.55,16.04,13.57,0,25.5-7.31,31.92-18.2h57.95s0,61.42,0,61.42H50.38Z"/>
      <rect class="cls-1" x="158.39" y="112.9" width="41.44" height="61.42"/>
      <rect class="cls-1" x="158.39" y="312.47" width="21.93" height="52.96"/>
      <path class="cls-1" d="m324.67,236.17h-31.71s0,152.5,0,152.5h106.07c6.42-10.89,18.3-18.2,31.92-18.2,20.51,0,37.18,16.67,37.18,37.18,0,20.56-16.67,37.18-37.18,37.18-13.62,0-25.51-7.31-31.92-18.2h-144.04s0-228.44,0-228.44h69.68s0-198.2,0-198.2h-166.28s0,74.94,0,74.94h79.41s0,137.36,0,137.36h-79.41s0,62.21,0,62.21h59.9s0,128.89,0,128.89h-59.9s0,57.79,0,57.79h392.35s0-107.23,0-107.23h-226.07s0-117.8,0-117.8Z"/>
      <path class="cls-4" d="m362.64,27.92v170.28s36.39,0,36.39,0c6.31-10.7,17.91-17.95,31.24-18.19,20.19-.36,37.52,16.36,37.85,36.55.34,20.85-16.46,37.8-37.17,37.8-13.62,0-25.51-7.31-31.92-18.2h-36.39s0,79.83,0,79.83h150.98s0-184.11,0-184.11h-53.74c-6.84,8.41-17.25,13.83-28.92,13.83-20.76,0-37.5-17-37.17-37.78.31-19.6,16.72-36.13,36.32-36.57,15.72-.35,29.3,9.05,35.08,22.55h85.56s0-36.68,0-36.68c0-16.19-13.13-29.32-29.32-29.32h-158.79Z"/>
      <path class="cls-3" d="m550.75,499.16v25.73c0,14.31-11.6,25.91-25.91,25.91H158.39s0-51.64,0-51.64h392.35Z"/>
    </g>
  </g>
</svg>