<?xml version="1.0" encoding="UTF-8"?>
<svg id="Capa_2" data-name="Capa 2" xmlns="http://www.w3.org/2000/svg" viewBox="0 0 563.35 153.66">
  <defs>
    <style>
      .cls-1, .cls-2, .cls-3, .cls-4 {
        fill: #fff;
      }

      .cls-2 {
        font-family: BebasNeueBook, 'Bebas Neue';
      }

      .cls-2, .cls-4 {
        font-size: 63px;
      }

      .cls-5 {
        letter-spacing: 0em;
      }

      .cls-3 {
        font-family: MontserratRoman-SemiBold, Montserrat;
        font-size: 15.16px;
        font-variation-settings: 'wght' 600;
        font-weight: 600;
        letter-spacing: .2em;
      }

      .cls-4 {
        font-family: BebasNeue-Regular, 'Bebas Neue';
      }

      .cls-6 {
        letter-spacing: 0em;
      }
    </style>
  </defs>
  <g id="Capa_1-2" data-name="Capa 1">
    <g>
      <path class="cls-1" d="m29.51,12.37v18.36s-14.2,0-14.2,0c-1.57-2.67-4.5-4.46-7.82-4.46-3.12,0-5.85,1.56-7.49,3.93v-10.41c0-4.1,3.32-7.42,7.42-7.42h22.08Z"/>
      <rect class="cls-1" x="21.63" y="64.39" width="7.87" height="15.24"/>
      <rect class="cls-1" x="23.98" y="111.22" width="5.53" height="14.16"/>
      <path class="cls-1" d="m12.34,55.09v33.85s17.16,0,17.16,0v12.98s-14.83,0-14.83,0v32.77s14.83,0,14.83,0v12.65s-22.08,0-22.08,0c-4.1,0-7.42-3.32-7.42-7.42V40.56c1.64,2.37,4.38,3.93,7.49,3.93,3.32,0,6.25-1.79,7.82-4.46h14.2s0,15.05,0,15.05H12.34Z"/>
      <rect class="cls-1" x="38.81" y="40.04" width="10.15" height="15.05"/>
      <rect class="cls-1" x="38.81" y="88.94" width="5.37" height="12.98"/>
      <path class="cls-1" d="m79.56,70.24h-7.77s0,37.37,0,37.37h25.99c1.57-2.67,4.48-4.46,7.82-4.46,5.03,0,9.11,4.08,9.11,9.11,0,5.04-4.08,9.11-9.11,9.11-3.34,0-6.25-1.79-7.82-4.46h-35.29s0-55.98,0-55.98h17.07s0-48.57,0-48.57h-40.74s0,18.36,0,18.36h19.46s0,33.66,0,33.66h-19.46s0,15.24,0,15.24h14.68s0,31.58,0,31.58h-14.68s0,14.16,0,14.16h96.14s0-26.27,0-26.27h-55.4s0-28.86,0-28.86Z"/>
      <path class="cls-1" d="m88.86,19.21v41.72s8.92,0,8.92,0c1.55-2.62,4.39-4.4,7.66-4.46,4.95-.09,9.19,4.01,9.28,8.96.08,5.11-4.03,9.26-9.11,9.26-3.34,0-6.25-1.79-7.82-4.46h-8.92s0,19.56,0,19.56h36.99s0-45.11,0-45.11h-13.17c-1.68,2.06-4.23,3.39-7.09,3.39-5.09,0-9.19-4.16-9.11-9.26.08-4.8,4.1-8.85,8.9-8.96,3.85-.09,7.18,2.22,8.6,5.53h20.96s0-8.99,0-8.99c0-3.97-3.22-7.18-7.18-7.18h-38.91Z"/>
      <path class="cls-1" d="m134.95,134.68v6.31c0,3.51-2.84,6.35-6.35,6.35H38.81s0-12.65,0-12.65h96.14Z"/>
      <text class="cls-4" transform="translate(161.75 111.65)"><tspan x="0" y="0">Científi</tspan><tspan class="cls-6" x="154.78" y="0">c</tspan><tspan x="179.04" y="0">O N</tspan><tspan class="cls-5" x="241.21" y="0">a</tspan><tspan x="266.35" y="0">cional</tspan></text>
      <text class="cls-3" transform="translate(162.06 134.29)"><tspan x="0" y="0">Avances Científicos y Tecnológicos </tspan><tspan x="0" y="15.44">Aplicados en la Medicina Moderna</tspan></text>
      <text class="cls-2" transform="translate(165.21 53.55)"><tspan x="0" y="0">XXI</tspan></text>
      <text class="cls-2" transform="translate(159.29 53.55)"><tspan x="0" y="0" xml:space="preserve">         Congreso</tspan></text>
    </g>
  </g>
</svg>