<?xml version="1.0" encoding="UTF-8"?>
<svg id="Capa_2" data-name="Capa 2" xmlns="http://www.w3.org/2000/svg" viewBox="0 0 579.51 159.69">
  <defs>
    <style>
      .cls-1 {
        fill: #f1c243;
      }

      .cls-2, .cls-3 {
        fill: #52adbd;
      }

      .cls-4 {
        font-family: BebasNeueBold, 'Bebas Neue';
      }

      .cls-4, .cls-5, .cls-6 {
        fill: #3364a8;
      }

      .cls-4, .cls-6 {
        font-size: 65.47px;
      }

      .cls-7 {
        fill: #c4712f;
      }

      .cls-6 {
        font-family: BebasNeueBook, 'Bebas Neue';
      }

      .cls-8 {
        letter-spacing: 0em;
      }

      .cls-3 {
        font-family: MontserratRoman-SemiBold, Montserrat;
        font-size: 15.75px;
        font-variation-settings: 'wght' 600;
        font-weight: 600;
        letter-spacing: .2em;
      }
    </style>
  </defs>
  <g id="Capa_1-2" data-name="Capa 1">
    <g>
      <path class="cls-2" d="m26.71,22.64v16.62s-12.86,0-12.86,0c-1.42-2.41-4.07-4.04-7.08-4.04-2.82,0-5.3,1.41-6.78,3.56v-9.42c0-3.71,3.01-6.72,6.72-6.72h19.99Z"/>
      <rect class="cls-2" x="19.59" y="69.73" width="7.13" height="13.8"/>
      <rect class="cls-2" x="21.71" y="112.12" width="5" height="12.82"/>
      <path class="cls-2" d="m11.18,61.31v30.64s15.54,0,15.54,0v11.75s-13.43,0-13.43,0v29.66s13.43,0,13.43,0v11.46s-19.99,0-19.99,0c-3.71,0-6.72-3.01-6.72-6.72V48.16c1.48,2.15,3.97,3.56,6.78,3.56,3.01,0,5.66-1.62,7.08-4.04h12.86s0,13.63,0,13.63h-15.54Z"/>
      <rect class="cls-5" x="35.14" y="47.68" width="9.19" height="13.63"/>
      <rect class="cls-5" x="35.14" y="91.95" width="4.86" height="11.75"/>
      <path class="cls-5" d="m72.02,75.03h-7.03s0,33.83,0,33.83h23.53c1.42-2.41,4.06-4.04,7.08-4.04,4.55,0,8.25,3.7,8.25,8.25,0,4.56-3.7,8.25-8.25,8.25-3.02,0-5.66-1.62-7.08-4.04h-31.95s0-50.67,0-50.67h15.46s0-43.97,0-43.97h-36.89s0,16.62,0,16.62h17.61s0,30.47,0,30.47h-17.61s0,13.8,0,13.8h13.29s0,28.59,0,28.59h-13.29s0,12.82,0,12.82h87.03s0-23.79,0-23.79h-50.15s0-26.13,0-26.13Z"/>
      <path class="cls-1" d="m80.44,28.83v37.77s8.07,0,8.07,0c1.4-2.37,3.97-3.98,6.93-4.03,4.48-.08,8.32,3.63,8.4,8.11.08,4.62-3.65,8.39-8.25,8.39-3.02,0-5.66-1.62-7.08-4.04h-8.07s0,17.71,0,17.71h33.49s0-40.84,0-40.84h-11.92c-1.52,1.87-3.83,3.07-6.42,3.07-4.61,0-8.32-3.77-8.25-8.38.07-4.35,3.71-8.01,8.06-8.11,3.49-.08,6.5,2.01,7.78,5h18.98s0-8.14,0-8.14c0-3.59-2.91-6.5-6.5-6.5h-35.22Z"/>
      <path class="cls-7" d="m122.17,133.36v5.71c0,3.17-2.57,5.75-5.75,5.75H35.14s0-11.46,0-11.46h87.03Z"/>
      <text class="cls-4" transform="translate(162.73 116.03)"><tspan x="0" y="0">CientíficO N</tspan><tspan class="cls-8" x="249.77" y="0">a</tspan><tspan x="276.35" y="0">cional</tspan></text>
      <text class="cls-3" transform="translate(163.05 139.56)"><tspan x="0" y="0">Avances Científicos y Tecnológicos </tspan><tspan x="0" y="16.05">Aplicados en la Medicina Moderna</tspan></text>
      <text class="cls-6" transform="translate(166.33 55.65)"><tspan x="0" y="0">XXI</tspan></text>
      <text class="cls-6" transform="translate(160.17 55.65)"><tspan x="0" y="0" xml:space="preserve">         Congreso</tspan></text>
    </g>
  </g>
</svg>